<?xml version="1.0" encoding="UTF-8" standalone="no"?>
<!DOCTYPE svg PUBLIC "-//W3C//DTD SVG 1.1//EN"
 "http://www.w3.org/Graphics/SVG/1.1/DTD/svg11.dtd">
<!-- Generated by graphviz version 2.43.0 (0)
 -->
<!-- Title: components/display/display_lfo.c Pages: 1 -->
<svg width="565pt" height="313pt"
 viewBox="0.00 0.00 565.14 313.00" xmlns="http://www.w3.org/2000/svg" xmlns:xlink="http://www.w3.org/1999/xlink">
<g id="graph0" class="graph" transform="scale(1 1) rotate(0) translate(4 309)">
<title>components/display/display_lfo.c</title>
<!-- Node1 -->
<g id="Node000001" class="node">
<title>Node1</title>
<g id="a_Node000001"><a xlink:title=" ">
<polygon fill="#999999" stroke="#666666" points="449.14,-305 334.14,-305 334.14,-275 449.14,-275 449.14,-305"/>
<text text-anchor="start" x="342.14" y="-293" font-family="Helvetica,sans-Serif" font-size="10.00">components/display</text>
<text text-anchor="middle" x="391.64" y="-282" font-family="Helvetica,sans-Serif" font-size="10.00">/display_lfo.c</text>
</a>
</g>
</g>
<!-- Node2 -->
<g id="Node000002" class="node">
<title>Node2</title>
<g id="a_Node000002"><a xlink:href="display__lfo_8h.html" target="_top" xlink:title=" ">
<polygon fill="white" stroke="#666666" points="348.14,-239 269.14,-239 269.14,-220 348.14,-220 348.14,-239"/>
<text text-anchor="middle" x="308.64" y="-227" font-family="Helvetica,sans-Serif" font-size="10.00">display_lfo.h</text>
</a>
</g>
</g>
<!-- Node1&#45;&gt;Node2 -->
<g id="edge1_Node000001_Node000002" class="edge">
<title>Node1&#45;&gt;Node2</title>
<g id="a_edge1_Node000001_Node000002"><a xlink:title=" ">
<path fill="none" stroke="#63b8ff" d="M371.55,-274.84C358.77,-265.83 342.25,-254.18 329.34,-245.09"/>
<polygon fill="#63b8ff" stroke="#63b8ff" points="331.27,-242.17 321.08,-239.27 327.24,-247.89 331.27,-242.17"/>
</a>
</g>
</g>
<!-- Node9 -->
<g id="Node000009" class="node">
<title>Node9</title>
<g id="a_Node000009"><a xlink:href="voice__config_8h.html" target="_top" xlink:title=" ">
<polygon fill="white" stroke="#666666" points="166.64,-184 80.64,-184 80.64,-165 166.64,-165 166.64,-184"/>
<text text-anchor="middle" x="123.64" y="-172" font-family="Helvetica,sans-Serif" font-size="10.00">voice_config.h</text>
</a>
</g>
</g>
<!-- Node1&#45;&gt;Node9 -->
<g id="edge14_Node000001_Node000009" class="edge">
<title>Node1&#45;&gt;Node9</title>
<g id="a_edge14_Node000001_Node000009"><a xlink:title=" ">
<path fill="none" stroke="#63b8ff" d="M352.67,-274.93C326.47,-265.28 291.26,-251.92 260.64,-239 221.92,-222.66 177.97,-201.88 150.53,-188.63"/>
<polygon fill="#63b8ff" stroke="#63b8ff" points="151.73,-185.33 141.2,-184.12 148.68,-191.63 151.73,-185.33"/>
</a>
</g>
</g>
<!-- Node10 -->
<g id="Node000010" class="node">
<title>Node10</title>
<g id="a_Node000010"><a xlink:title=" ">
<polygon fill="#e0e0e0" stroke="#999999" points="417.14,-239 366.14,-239 366.14,-220 417.14,-220 417.14,-239"/>
<text text-anchor="middle" x="391.64" y="-227" font-family="Helvetica,sans-Serif" font-size="10.00">math.h</text>
</a>
</g>
</g>
<!-- Node1&#45;&gt;Node10 -->
<g id="edge18_Node000001_Node000010" class="edge">
<title>Node1&#45;&gt;Node10</title>
<g id="a_edge18_Node000001_Node000010"><a xlink:title=" ">
<path fill="none" stroke="#63b8ff" d="M391.64,-274.84C391.64,-267.21 391.64,-257.7 391.64,-249.45"/>
<polygon fill="#63b8ff" stroke="#63b8ff" points="395.14,-249.27 391.64,-239.27 388.14,-249.27 395.14,-249.27"/>
</a>
</g>
</g>
<!-- Node11 -->
<g id="Node000011" class="node">
<title>Node11</title>
<g id="a_Node000011"><a xlink:title=" ">
<polygon fill="#e0e0e0" stroke="#999999" points="485.64,-239 435.64,-239 435.64,-220 485.64,-220 485.64,-239"/>
<text text-anchor="middle" x="460.64" y="-227" font-family="Helvetica,sans-Serif" font-size="10.00">stdio.h</text>
</a>
</g>
</g>
<!-- Node1&#45;&gt;Node11 -->
<g id="edge19_Node000001_Node000011" class="edge">
<title>Node1&#45;&gt;Node11</title>
<g id="a_edge19_Node000001_Node000011"><a xlink:title=" ">
<path fill="none" stroke="#63b8ff" d="M408.35,-274.84C418.67,-266.09 431.92,-254.85 442.5,-245.88"/>
<polygon fill="#63b8ff" stroke="#63b8ff" points="444.94,-248.4 450.3,-239.27 440.41,-243.06 444.94,-248.4"/>
</a>
</g>
</g>
<!-- Node12 -->
<g id="Node000012" class="node">
<title>Node12</title>
<g id="a_Node000012"><a xlink:title=" ">
<polygon fill="#e0e0e0" stroke="#999999" points="557.14,-239 504.14,-239 504.14,-220 557.14,-220 557.14,-239"/>
<text text-anchor="middle" x="530.64" y="-227" font-family="Helvetica,sans-Serif" font-size="10.00">string.h</text>
</a>
</g>
</g>
<!-- Node1&#45;&gt;Node12 -->
<g id="edge20_Node000001_Node000012" class="edge">
<title>Node1&#45;&gt;Node12</title>
<g id="a_edge20_Node000001_Node000012"><a xlink:title=" ">
<path fill="none" stroke="#63b8ff" d="M424.94,-274.99C448.02,-265.27 478.51,-252.44 500.81,-243.06"/>
<polygon fill="#63b8ff" stroke="#63b8ff" points="502.26,-246.24 510.12,-239.14 499.54,-239.79 502.26,-246.24"/>
</a>
</g>
</g>
<!-- Node3 -->
<g id="Node000003" class="node">
<title>Node3</title>
<g id="a_Node000003"><a xlink:title=" ">
<polygon fill="#e0e0e0" stroke="#999999" points="326.64,-129 276.64,-129 276.64,-110 326.64,-110 326.64,-129"/>
<text text-anchor="middle" x="301.64" y="-117" font-family="Helvetica,sans-Serif" font-size="10.00">u8g2.h</text>
</a>
</g>
</g>
<!-- Node2&#45;&gt;Node3 -->
<g id="edge2_Node000002_Node000003" class="edge">
<title>Node2&#45;&gt;Node3</title>
<g id="a_edge2_Node000002_Node000003"><a xlink:title=" ">
<path fill="none" stroke="#63b8ff" d="M308.07,-219.66C306.94,-202.17 304.39,-162.8 302.86,-139.27"/>
<polygon fill="#63b8ff" stroke="#63b8ff" points="306.34,-138.91 302.2,-129.16 299.36,-139.36 306.34,-138.91"/>
</a>
</g>
</g>
<!-- Node4 -->
<g id="Node000004" class="node">
<title>Node4</title>
<g id="a_Node000004"><a xlink:href="display__seq_8h.html" target="_top" xlink:title=" ">
<polygon fill="white" stroke="#666666" points="280.14,-184 197.14,-184 197.14,-165 280.14,-165 280.14,-184"/>
<text text-anchor="middle" x="238.64" y="-172" font-family="Helvetica,sans-Serif" font-size="10.00">display_seq.h</text>
</a>
</g>
</g>
<!-- Node2&#45;&gt;Node4 -->
<g id="edge3_Node000002_Node000004" class="edge">
<title>Node2&#45;&gt;Node4</title>
<g id="a_edge3_Node000002_Node000004"><a xlink:title=" ">
<path fill="none" stroke="#63b8ff" d="M297.4,-219.98C286.85,-212 270.84,-199.88 258.2,-190.31"/>
<polygon fill="#63b8ff" stroke="#63b8ff" points="260.18,-187.42 250.09,-184.17 255.95,-193 260.18,-187.42"/>
</a>
</g>
</g>
<!-- Node7 -->
<g id="Node000007" class="node">
<title>Node7</title>
<g id="a_Node000007"><a xlink:title=" ">
<polygon fill="#e0e0e0" stroke="#999999" points="157.14,-19 104.14,-19 104.14,0 157.14,0 157.14,-19"/>
<text text-anchor="middle" x="130.64" y="-7" font-family="Helvetica,sans-Serif" font-size="10.00">stdint.h</text>
</a>
</g>
</g>
<!-- Node2&#45;&gt;Node7 -->
<g id="edge13_Node000002_Node000007" class="edge">
<title>Node2&#45;&gt;Node7</title>
<g id="a_edge13_Node000002_Node000007"><a xlink:title=" ">
<path fill="none" stroke="#63b8ff" d="M321,-219.87C331.29,-211.9 345.25,-199.03 351.64,-184 364.53,-153.73 370.68,-138.15 353.64,-110 314.12,-44.68 219.84,-22.02 167.41,-14.33"/>
<polygon fill="#63b8ff" stroke="#63b8ff" points="167.58,-10.82 157.2,-12.94 166.64,-17.75 167.58,-10.82"/>
</a>
</g>
</g>
<!-- Node8 -->
<g id="Node000008" class="node">
<title>Node8</title>
<g id="a_Node000008"><a xlink:title=" ">
<polygon fill="#e0e0e0" stroke="#999999" points="220.64,-74 158.64,-74 158.64,-55 220.64,-55 220.64,-74"/>
<text text-anchor="middle" x="189.64" y="-62" font-family="Helvetica,sans-Serif" font-size="10.00">stdbool.h</text>
</a>
</g>
</g>
<!-- Node2&#45;&gt;Node8 -->
<g id="edge12_Node000002_Node000008" class="edge">
<title>Node2&#45;&gt;Node8</title>
<g id="a_edge12_Node000002_Node000008"><a xlink:title=" ">
<path fill="none" stroke="#63b8ff" d="M314.91,-219.79C329.22,-198.77 361.14,-144.42 335.64,-110 311.77,-77.77 265.1,-68.1 230.93,-65.57"/>
<polygon fill="#63b8ff" stroke="#63b8ff" points="230.94,-62.07 220.76,-65 230.55,-69.06 230.94,-62.07"/>
</a>
</g>
</g>
<!-- Node4&#45;&gt;Node3 -->
<g id="edge4_Node000004_Node000003" class="edge">
<title>Node4&#45;&gt;Node3</title>
<g id="a_edge4_Node000004_Node000003"><a xlink:title=" ">
<path fill="none" stroke="#63b8ff" d="M248.77,-164.98C258.08,-157.15 272.11,-145.34 283.38,-135.86"/>
<polygon fill="#63b8ff" stroke="#63b8ff" points="285.94,-138.29 291.34,-129.17 281.43,-132.93 285.94,-138.29"/>
</a>
</g>
</g>
<!-- Node5 -->
<g id="Node000005" class="node">
<title>Node5</title>
<g id="a_Node000005"><a xlink:href="seq__model_8h.html" target="_top" xlink:title=" ">
<polygon fill="white" stroke="#666666" points="144.14,-129 65.14,-129 65.14,-110 144.14,-110 144.14,-129"/>
<text text-anchor="middle" x="104.64" y="-117" font-family="Helvetica,sans-Serif" font-size="10.00">seq_model.h</text>
</a>
</g>
</g>
<!-- Node4&#45;&gt;Node5 -->
<g id="edge5_Node000004_Node000005" class="edge">
<title>Node4&#45;&gt;Node5</title>
<g id="a_edge5_Node000004_Node000005"><a xlink:title=" ">
<path fill="none" stroke="#63b8ff" d="M217.11,-164.98C195.17,-156.3 160.9,-142.75 135.96,-132.88"/>
<polygon fill="#63b8ff" stroke="#63b8ff" points="137.15,-129.59 126.56,-129.17 134.58,-136.1 137.15,-129.59"/>
</a>
</g>
</g>
<!-- Node4&#45;&gt;Node7 -->
<g id="edge11_Node000004_Node000007" class="edge">
<title>Node4&#45;&gt;Node7</title>
<g id="a_edge11_Node000004_Node000007"><a xlink:title=" ">
<path fill="none" stroke="#63b8ff" d="M240.74,-164.77C245.27,-143.71 253.71,-89.28 229.64,-55 215.25,-34.5 189.11,-23.29 167.3,-17.25"/>
<polygon fill="#63b8ff" stroke="#63b8ff" points="167.88,-13.79 157.33,-14.75 166.18,-20.58 167.88,-13.79"/>
</a>
</g>
</g>
<!-- Node4&#45;&gt;Node8 -->
<g id="edge10_Node000004_Node000008" class="edge">
<title>Node4&#45;&gt;Node8</title>
<g id="a_edge10_Node000004_Node000008"><a xlink:title=" ">
<path fill="none" stroke="#63b8ff" d="M234.63,-164.66C226.59,-146.93 208.35,-106.73 197.73,-83.32"/>
<polygon fill="#63b8ff" stroke="#63b8ff" points="200.89,-81.82 193.57,-74.16 194.52,-84.71 200.89,-81.82"/>
</a>
</g>
</g>
<!-- Node6 -->
<g id="Node000006" class="node">
<title>Node6</title>
<g id="a_Node000006"><a xlink:href="chord__types_8h.html" target="_top" xlink:title=" ">
<polygon fill="white" stroke="#666666" points="102.14,-74 17.14,-74 17.14,-55 102.14,-55 102.14,-74"/>
<text text-anchor="middle" x="59.64" y="-62" font-family="Helvetica,sans-Serif" font-size="10.00">chord_types.h</text>
</a>
</g>
</g>
<!-- Node5&#45;&gt;Node6 -->
<g id="edge6_Node000005_Node000006" class="edge">
<title>Node5&#45;&gt;Node6</title>
<g id="a_edge6_Node000005_Node000006"><a xlink:title=" ">
<path fill="none" stroke="#63b8ff" d="M97.21,-109.75C90.79,-102.18 81.34,-91.05 73.52,-81.84"/>
<polygon fill="#63b8ff" stroke="#63b8ff" points="76.08,-79.45 66.94,-74.09 70.74,-83.98 76.08,-79.45"/>
</a>
</g>
</g>
<!-- Node5&#45;&gt;Node7 -->
<g id="edge9_Node000005_Node000007" class="edge">
<title>Node5&#45;&gt;Node7</title>
<g id="a_edge9_Node000005_Node000007"><a xlink:title=" ">
<path fill="none" stroke="#63b8ff" d="M106.77,-109.66C111,-92.09 120.54,-52.45 126.2,-28.95"/>
<polygon fill="#63b8ff" stroke="#63b8ff" points="129.62,-29.7 128.56,-19.16 122.82,-28.06 129.62,-29.7"/>
</a>
</g>
</g>
<!-- Node5&#45;&gt;Node8 -->
<g id="edge8_Node000005_Node000008" class="edge">
<title>Node5&#45;&gt;Node8</title>
<g id="a_edge8_Node000005_Node000008"><a xlink:title=" ">
<path fill="none" stroke="#63b8ff" d="M118.3,-109.98C131.48,-101.77 151.67,-89.18 167.21,-79.49"/>
<polygon fill="#63b8ff" stroke="#63b8ff" points="169.1,-82.43 175.74,-74.17 165.4,-76.49 169.1,-82.43"/>
</a>
</g>
</g>
<!-- Node6&#45;&gt;Node7 -->
<g id="edge7_Node000006_Node000007" class="edge">
<title>Node6&#45;&gt;Node7</title>
<g id="a_edge7_Node000006_Node000007"><a xlink:title=" ">
<path fill="none" stroke="#63b8ff" d="M71.05,-54.98C81.75,-47 97.98,-34.88 110.81,-25.31"/>
<polygon fill="#63b8ff" stroke="#63b8ff" points="113.11,-27.96 119.03,-19.17 108.92,-22.35 113.11,-27.96"/>
</a>
</g>
</g>
<!-- Node9&#45;&gt;Node5 -->
<g id="edge15_Node000009_Node000005" class="edge">
<title>Node9&#45;&gt;Node5</title>
<g id="a_edge15_Node000009_Node000005"><a xlink:title=" ">
<path fill="none" stroke="#63b8ff" d="M120.51,-164.75C117.96,-157.65 114.29,-147.4 111.12,-138.56"/>
<polygon fill="#63b8ff" stroke="#63b8ff" points="114.39,-137.32 107.72,-129.09 107.8,-139.68 114.39,-137.32"/>
</a>
</g>
</g>
<!-- Node9&#45;&gt;Node7 -->
<g id="edge17_Node000009_Node000007" class="edge">
<title>Node9&#45;&gt;Node7</title>
<g id="a_edge17_Node000009_Node000007"><a xlink:title=" ">
<path fill="none" stroke="#63b8ff" d="M102.81,-164.92C61.32,-146.57 -24.93,-101.43 7.64,-55 26.98,-27.43 65.19,-16.87 93.91,-12.86"/>
<polygon fill="#63b8ff" stroke="#63b8ff" points="94.5,-16.32 104.02,-11.66 93.67,-9.37 94.5,-16.32"/>
</a>
</g>
</g>
<!-- Node9&#45;&gt;Node8 -->
<g id="edge16_Node000009_Node000008" class="edge">
<title>Node9&#45;&gt;Node8</title>
<g id="a_edge16_Node000009_Node000008"><a xlink:title=" ">
<path fill="none" stroke="#63b8ff" d="M129.55,-164.72C135.51,-155.8 144.9,-141.56 152.64,-129 162.14,-113.6 172.47,-95.77 179.8,-82.93"/>
<polygon fill="#63b8ff" stroke="#63b8ff" points="182.86,-84.63 184.75,-74.21 176.77,-81.18 182.86,-84.63"/>
</a>
</g>
</g>
</g>
</svg>
