<?xml version="1.0" encoding="UTF-8" standalone="no"?>
<!DOCTYPE svg PUBLIC "-//W3C//DTD SVG 1.1//EN"
 "http://www.w3.org/Graphics/SVG/1.1/DTD/svg11.dtd">
<!-- Generated by graphviz version 2.43.0 (0)
 -->
<!-- Title: drone_set_patch Pages: 1 -->
<!--zoomable 105 -->

<svg id="main" version="1.1" xmlns="http://www.w3.org/2000/svg" xmlns:xlink="http://www.w3.org/1999/xlink" xml:space="preserve" onload="init(evt)">
<style type="text/css"><![CDATA[
.node, .edge {opacity: 0.7;}
.node.selected, .edge.selected {opacity: 1;}
.edge:hover path { stroke: red; }
.edge:hover polygon { stroke: red; fill: red; }
]]></style>

<defs>
  <circle id="rim" cx="0" cy="0" r="7"/>
  <circle id="rim2" cx="0" cy="0" r="3.5"/>
  <g id="zoomPlus">
    <use xlink:href="#rim" fill="#404040"><set attributeName="fill" to="#808080" begin="zoomplus.mouseover" end="zoomplus.mouseout"/></use>
    <path d="M-4,0h8M0,-4v8" fill="none" stroke="white" stroke-width="1.5" pointer-events="none"/>
  </g>
  <g id="zoomMin">
    <use xlink:href="#rim" fill="#404040"><set attributeName="fill" to="#808080" begin="zoomminus.mouseover" end="zoomminus.mouseout"/></use>
    <path d="M-4,0h8" fill="none" stroke="white" stroke-width="1.5" pointer-events="none"/>
  </g>
  <g id="arrowUp" transform="translate(30 24)">
    <use xlink:href="#rim"/>
    <path pointer-events="none" fill="none" stroke="white" stroke-width="1.5" d="M0,-3.0v7 M-2.5,-0.5L0,-3.0L2.5,-0.5"/>
  </g>
  <g id="arrowRight" transform="rotate(90) translate(36 -43)">
    <use xlink:href="#rim"/>
    <path pointer-events="none" fill="none" stroke="white" stroke-width="1.5" d="M0,-3.0v7 M-2.5,-0.5L0,-3.0L2.5,-0.5"/>
  </g>
  <g id="arrowDown" transform="rotate(180) translate(-30 -48)">
    <use xlink:href="#rim"/>
    <path pointer-events="none" fill="none" stroke="white" stroke-width="1.5" d="M0,-3.0v7 M-2.5,-0.5L0,-3.0L2.5,-0.5"/>
  </g>
  <g id="arrowLeft" transform="rotate(270) translate(-36 17)">
    <use xlink:href="#rim"/>
    <path pointer-events="none" fill="none" stroke="white" stroke-width="1.5" d="M0,-3.0v7 M-2.5,-0.5L0,-3.0L2.5,-0.5"/>
  </g>
  <g id="resetDef">
    <use xlink:href="#rim2" fill="#404040"><set attributeName="fill" to="#808080" begin="reset.mouseover" end="reset.mouseout"/></use>
  </g>
</defs>
<script type="application/ecmascript">
var viewWidth = 1172;
var viewHeight = 105;
var sectionId = 'dynsection-45';
</script>
<script type="application/ecmascript" xlink:href="svg.min.js"/>
<svg id="graph" class="graph">
<g id="viewport">
<title>drone_set_patch</title>
<!-- Node1 -->
<g id="Node000001" class="node">
<title>Node1</title>
<g id="a_Node000001"><a xlink:title=" ">
<polygon fill="#999999" stroke="#666666" points="1164,-75 1067,-75 1067,-56 1164,-56 1164,-75"/>
<text text-anchor="middle" x="1115.5" y="-63" font-family="Helvetica,sans-Serif" font-size="10.00">drone_set_patch</text>
</a>
</g>
</g>
<!-- Node2 -->
<g id="Node000002" class="node">
<title>Node2</title>
<g id="a_Node000002"><a xlink:href="project__snapshot_8c.html#ac955533a232c189cd35e39f7f0ee1cc9" target="_top" xlink:title=" ">
<polygon fill="white" stroke="#666666" points="1008.5,-97 931.5,-97 931.5,-78 1008.5,-78 1008.5,-97"/>
<text text-anchor="middle" x="970" y="-85" font-family="Helvetica,sans-Serif" font-size="10.00">apply_drone</text>
</a>
</g>
</g>
<!-- Node1&#45;&gt;Node2 -->
<g id="edge1_Node000001_Node000002" class="edge">
<title>Node1&#45;&gt;Node2</title>
<g id="a_edge1_Node000001_Node000002"><a xlink:title=" ">
<path fill="none" stroke="#63b8ff" d="M1056.77,-74.35C1040.54,-76.84 1023.32,-79.48 1008.6,-81.74"/>
<polygon fill="#63b8ff" stroke="#63b8ff" points="1057.36,-77.8 1066.72,-72.83 1056.3,-70.88 1057.36,-77.8"/>
</a>
</g>
</g>
<!-- Node4 -->
<g id="Node000004" class="node">
<title>Node4</title>
<g id="a_Node000004"><a xlink:href="ui__patch__cycle_8c.html#af914cf302ae82a556754b1144b86efe6" target="_top" xlink:title=" ">
<polygon fill="white" stroke="#666666" points="1031,-59.5 909,-59.5 909,-29.5 1031,-29.5 1031,-59.5"/>
<text text-anchor="start" x="917" y="-47.5" font-family="Helvetica,sans-Serif" font-size="10.00">synth_ui_drone_cycle</text>
<text text-anchor="middle" x="970" y="-36.5" font-family="Helvetica,sans-Serif" font-size="10.00">_patch</text>
</a>
</g>
</g>
<!-- Node1&#45;&gt;Node4 -->
<g id="edge3_Node000001_Node000004" class="edge">
<title>Node1&#45;&gt;Node4</title>
<g id="a_edge3_Node000001_Node000004"><a xlink:title=" ">
<path fill="none" stroke="#63b8ff" d="M1056.62,-57.03C1048.21,-55.8 1039.54,-54.53 1031.08,-53.29"/>
<polygon fill="#63b8ff" stroke="#63b8ff" points="1056.32,-60.52 1066.72,-58.51 1057.33,-53.6 1056.32,-60.52"/>
</a>
</g>
</g>
<!-- Node3 -->
<g id="Node000003" class="node">
<title>Node3</title>
<g id="a_Node000003"><a xlink:href="project__snapshot_8c.html#adc328f05222133bb8129c9d502dc3ff4" target="_top" xlink:title=" ">
<polygon fill="white" stroke="#666666" points="873,-97 747,-97 747,-78 873,-78 873,-97"/>
<text text-anchor="middle" x="810" y="-85" font-family="Helvetica,sans-Serif" font-size="10.00">project_snapshot_load</text>
</a>
</g>
</g>
<!-- Node2&#45;&gt;Node3 -->
<g id="edge2_Node000002_Node000003" class="edge">
<title>Node2&#45;&gt;Node3</title>
<g id="a_edge2_Node000002_Node000003"><a xlink:title=" ">
<path fill="none" stroke="#63b8ff" d="M921.04,-87.5C905.98,-87.5 889.12,-87.5 873.21,-87.5"/>
<polygon fill="#63b8ff" stroke="#63b8ff" points="921.16,-91 931.16,-87.5 921.16,-84 921.16,-91"/>
</a>
</g>
</g>
<!-- Node5 -->
<g id="Node000005" class="node">
<title>Node5</title>
<g id="a_Node000005"><a xlink:href="ui__screen__drone_8c.html#a1dc22c17796dfb3d28576143bbba316f" target="_top" xlink:title=" ">
<polygon fill="white" stroke="#666666" points="856,-57 764,-57 764,-38 856,-38 856,-57"/>
<text text-anchor="middle" x="810" y="-45" font-family="Helvetica,sans-Serif" font-size="10.00">drone_edit_row</text>
</a>
</g>
</g>
<!-- Node4&#45;&gt;Node5 -->
<g id="edge4_Node000004_Node000005" class="edge">
<title>Node4&#45;&gt;Node5</title>
<g id="a_edge4_Node000004_Node000005"><a xlink:title=" ">
<path fill="none" stroke="#63b8ff" d="M898.48,-45.84C884.14,-46.11 869.44,-46.39 856.27,-46.64"/>
<polygon fill="#63b8ff" stroke="#63b8ff" points="898.88,-49.33 908.82,-45.64 898.75,-42.33 898.88,-49.33"/>
</a>
</g>
</g>
<!-- Node7 -->
<g id="Node000007" class="node">
<title>Node7</title>
<g id="a_Node000007"><a xlink:href="main_8c.html#a48a6f3ccf6ee603fccdef5ef419d94cb" target="_top" xlink:title=" ">
<polygon fill="white" stroke="#666666" points="546,-38 416,-38 416,-19 546,-19 546,-38"/>
<text text-anchor="middle" x="481" y="-26" font-family="Helvetica,sans-Serif" font-size="10.00">encoder_process_steps</text>
</a>
</g>
</g>
<!-- Node4&#45;&gt;Node7 -->
<g id="edge12_Node000004_Node000007" class="edge">
<title>Node4&#45;&gt;Node7</title>
<g id="a_edge12_Node000004_Node000007"><a xlink:title=" ">
<path fill="none" stroke="#63b8ff" d="M898.69,-31.52C890.06,-30.3 881.35,-29.24 873,-28.5 758.22,-18.29 623.74,-21.62 546.16,-25.02"/>
<polygon fill="#63b8ff" stroke="#63b8ff" points="898.35,-35 908.75,-33.01 899.38,-28.08 898.35,-35"/>
</a>
</g>
</g>
<!-- Node6 -->
<g id="Node000006" class="node">
<title>Node6</title>
<g id="a_Node000006"><a xlink:href="ui__screen__drone_8c.html#a5dbc7bb2e871c648cf939be1016c9c3c" target="_top" xlink:title=" ">
<polygon fill="white" stroke="#666666" points="711,-65.5 582,-65.5 582,-35.5 711,-35.5 711,-65.5"/>
<text text-anchor="start" x="590" y="-53.5" font-family="Helvetica,sans-Serif" font-size="10.00">synth_ui_drone_handle</text>
<text text-anchor="middle" x="646.5" y="-42.5" font-family="Helvetica,sans-Serif" font-size="10.00">_encoder</text>
</a>
</g>
</g>
<!-- Node5&#45;&gt;Node6 -->
<g id="edge5_Node000005_Node000006" class="edge">
<title>Node5&#45;&gt;Node6</title>
<g id="a_edge5_Node000005_Node000006"><a xlink:title=" ">
<path fill="none" stroke="#63b8ff" d="M753.43,-48.53C739.84,-48.78 725.19,-49.06 711.25,-49.32"/>
<polygon fill="#63b8ff" stroke="#63b8ff" points="753.65,-52.03 763.58,-48.34 753.52,-45.03 753.65,-52.03"/>
</a>
</g>
</g>
<!-- Node6&#45;&gt;Node7 -->
<g id="edge6_Node000006_Node000007" class="edge">
<title>Node6&#45;&gt;Node7</title>
<g id="a_edge6_Node000006_Node000007"><a xlink:title=" ">
<path fill="none" stroke="#63b8ff" d="M571.81,-40.58C563.21,-39.43 554.5,-38.25 546.05,-37.12"/>
<polygon fill="#63b8ff" stroke="#63b8ff" points="571.44,-44.07 581.82,-41.93 572.37,-37.13 571.44,-44.07"/>
</a>
</g>
</g>
<!-- Node8 -->
<g id="Node000008" class="node">
<title>Node8</title>
<g id="a_Node000008"><a xlink:href="main_8c.html#a7c172ae572f9673c6c52bfaca428fc48" target="_top" xlink:title=" ">
<polygon fill="white" stroke="#666666" points="380,-57 298,-57 298,-38 380,-38 380,-57"/>
<text text-anchor="middle" x="339" y="-45" font-family="Helvetica,sans-Serif" font-size="10.00">encoder_task</text>
</a>
</g>
</g>
<!-- Node7&#45;&gt;Node8 -->
<g id="edge7_Node000007_Node000008" class="edge">
<title>Node7&#45;&gt;Node8</title>
<g id="a_edge7_Node000007_Node000008"><a xlink:title=" ">
<path fill="none" stroke="#63b8ff" d="M405.81,-38.57C397.02,-39.76 388.32,-40.94 380.27,-42.03"/>
<polygon fill="#63b8ff" stroke="#63b8ff" points="406.3,-42.03 415.74,-37.22 405.36,-35.1 406.3,-42.03"/>
</a>
</g>
</g>
<!-- Node11 -->
<g id="Node000011" class="node">
<title>Node11</title>
<g id="a_Node000011"><a xlink:href="main_8c.html#a8b590a53735b197cc55892cb28706169" target="_top" xlink:title=" ">
<polygon fill="white" stroke="#666666" points="262,-19 101,-19 101,0 262,0 262,-19"/>
<text text-anchor="middle" x="181.5" y="-7" font-family="Helvetica,sans-Serif" font-size="10.00">harness_inject_encoder_hook</text>
</a>
</g>
</g>
<!-- Node7&#45;&gt;Node11 -->
<g id="edge10_Node000007_Node000011" class="edge">
<title>Node7&#45;&gt;Node11</title>
<g id="a_edge10_Node000007_Node000011"><a xlink:title=" ">
<path fill="none" stroke="#63b8ff" d="M405.82,-23.76C362.13,-20.97 306.85,-17.44 262.22,-14.59"/>
<polygon fill="#63b8ff" stroke="#63b8ff" points="405.61,-27.26 415.81,-24.4 406.06,-20.27 405.61,-27.26"/>
</a>
</g>
</g>
<!-- Node9 -->
<g id="Node000009" class="node">
<title>Node9</title>
<g id="a_Node000009"><a xlink:href="main_8c.html#a3284ccb20ad2e72440652c1b1cc6d2ca" target="_top" xlink:title=" ">
<polygon fill="white" stroke="#666666" points="233,-56 130,-56 130,-37 233,-37 233,-56"/>
<text text-anchor="middle" x="181.5" y="-44" font-family="Helvetica,sans-Serif" font-size="10.00">encoder_init_task</text>
</a>
</g>
</g>
<!-- Node8&#45;&gt;Node9 -->
<g id="edge8_Node000008_Node000009" class="edge">
<title>Node8&#45;&gt;Node9</title>
<g id="a_edge8_Node000008_Node000009"><a xlink:title=" ">
<path fill="none" stroke="#63b8ff" d="M287.9,-47.18C270.33,-47.06 250.6,-46.94 233.01,-46.82"/>
<polygon fill="#63b8ff" stroke="#63b8ff" points="287.93,-50.68 297.95,-47.24 287.98,-43.68 287.93,-50.68"/>
</a>
</g>
</g>
<!-- Node10 -->
<g id="Node000010" class="node">
<title>Node10</title>
<g id="a_Node000010"><a xlink:href="main_8c.html#a630544a7f0a2cc40d8a7fefab7e2fe70" target="_top" xlink:title=" ">
<polygon fill="white" stroke="#666666" points="65,-37 0,-37 0,-18 65,-18 65,-37"/>
<text text-anchor="middle" x="32.5" y="-25" font-family="Helvetica,sans-Serif" font-size="10.00">app_main</text>
</a>
</g>
</g>
<!-- Node9&#45;&gt;Node10 -->
<g id="edge9_Node000009_Node000010" class="edge">
<title>Node9&#45;&gt;Node10</title>
<g id="a_edge9_Node000009_Node000010"><a xlink:title=" ">
<path fill="none" stroke="#63b8ff" d="M119.95,-38.67C101.2,-36.25 81.3,-33.68 65.32,-31.61"/>
<polygon fill="#63b8ff" stroke="#63b8ff" points="119.54,-42.15 129.91,-39.96 120.44,-35.21 119.54,-42.15"/>
</a>
</g>
</g>
<!-- Node11&#45;&gt;Node10 -->
<g id="edge11_Node000011_Node000010" class="edge">
<title>Node11&#45;&gt;Node10</title>
<g id="a_edge11_Node000011_Node000010"><a xlink:title=" ">
<path fill="none" stroke="#63b8ff" d="M92.54,-20.27C82.88,-21.45 73.57,-22.59 65.31,-23.61"/>
<polygon fill="#63b8ff" stroke="#63b8ff" points="93.2,-23.72 102.7,-19.03 92.34,-16.77 93.2,-23.72"/>
</a>
</g>
</g>
</g>
</svg>

<g id="navigator" transform="translate(0 0)" fill="#404254">
  <rect fill="#f2f5e9" fill-opacity="0.5" stroke="#606060" stroke-width=".5" x="0" y="0" width="60" height="60"/>
  <use id="zoomplus" xlink:href="#zoomPlus" x="17" y="9" onmousedown="handleZoom(evt,'in')"/>
  <use id="zoomminus" xlink:href="#zoomMin" x="42" y="9" onmousedown="handleZoom(evt,'out')"/>
  <use id="reset" xlink:href="#resetDef" x="30" y="36" onmousedown="handleReset()"/>
   <use id="arrowup" xlink:href="#arrowUp" x="0" y="0" onmousedown="handlePan(0,-1)"/>
  <use id="arrowright" xlink:href="#arrowRight" x="0" y="0" onmousedown="handlePan(1,0)"/>
  <use id="arrowdown" xlink:href="#arrowDown" x="0" y="0" onmousedown="handlePan(0,1)"/>
  <use id="arrowleft" xlink:href="#arrowLeft" x="0" y="0" onmousedown="handlePan(-1,0)"/>
</g>
<svg viewBox="0 0 15 15" width="100%" height="30px" preserveAspectRatio="xMaxYMin meet">
 <g id="arrow_out" transform="scale(0.3 0.3)">
  <a xlink:href="drone__core_8h_a31978f0bfae671ce4847f6b687b37385_icgraph_org.svg" target="_base">
   <rect id="button" ry="5" rx="5" y="6" x="6" height="38" width="38"
        fill="#f2f5e9" fill-opacity="0.5" stroke="#606060" stroke-width="1.0"/>
   <path id="arrow"
     d="M 11.500037,31.436501 C 11.940474,20.09759 22.043105,11.32322 32.158766,21.979434 L 37.068811,17.246167 C 37.068811,17.246167 37.088388,32 37.088388,32 L 22.160133,31.978069 C 22.160133,31.978069 26.997745,27.140456 26.997745,27.140456 C 18.528582,18.264221 13.291696,25.230495 11.500037,31.436501 z"
     style="fill:#404040;"/>
  </a>
 </g>
</svg>

<style type='text/css'>
<![CDATA[
[data-mouse-over-selected='false'] { opacity: 0.7; }
[data-mouse-over-selected='true']  { opacity: 1.0; }
]]>
</style>
<script type="application/ecmascript"><![CDATA[
document.addEventListener('DOMContentLoaded', (event) => {
  highlightEdges();
  highlightAdjacentNodes();
});
]]></script>
</svg>
