<?xml version="1.0" encoding="UTF-8" standalone="no"?>
<!DOCTYPE svg PUBLIC "-//W3C//DTD SVG 1.1//EN"
 "http://www.w3.org/Graphics/SVG/1.1/DTD/svg11.dtd">
<!-- Generated by graphviz version 2.43.0 (0)
 -->
<!-- Title: drone_get_resonance Pages: 1 -->
<svg width="1048pt" height="214pt"
 viewBox="0.00 0.00 1048.00 214.00" xmlns="http://www.w3.org/2000/svg" xmlns:xlink="http://www.w3.org/1999/xlink">
<g id="graph0" class="graph" transform="scale(1 1) rotate(0) translate(4 210)">
<title>drone_get_resonance</title>
<!-- Node1 -->
<g id="Node000001" class="node">
<title>Node1</title>
<g id="a_Node000001"><a xlink:title=" ">
<polygon fill="#999999" stroke="#666666" points="1040,-113 919,-113 919,-94 1040,-94 1040,-113"/>
<text text-anchor="middle" x="979.5" y="-101" font-family="Helvetica,sans-Serif" font-size="10.00">drone_get_resonance</text>
</a>
</g>
</g>
<!-- Node2 -->
<g id="Node000002" class="node">
<title>Node2</title>
<g id="a_Node000002"><a xlink:href="ui__view__resolve_8c.html#aa64f17eae3379fd7a4512474a0f286c1" target="_top" xlink:title=" ">
<polygon fill="white" stroke="#666666" points="865,-206 772,-206 772,-187 865,-187 865,-206"/>
<text text-anchor="middle" x="818.5" y="-194" font-family="Helvetica,sans-Serif" font-size="10.00">draw_drone_vis</text>
</a>
</g>
</g>
<!-- Node1&#45;&gt;Node2 -->
<g id="edge1_Node000001_Node000002" class="edge">
<title>Node1&#45;&gt;Node2</title>
<g id="a_edge1_Node000001_Node000002"><a xlink:title=" ">
<path fill="none" stroke="#63b8ff" d="M961.69,-120.09C943.65,-137.03 913.46,-162.99 883,-178.5 876.46,-181.83 869.23,-184.62 862.05,-186.93"/>
<polygon fill="#63b8ff" stroke="#63b8ff" points="964.28,-122.46 969.08,-113.01 959.44,-117.4 964.28,-122.46"/>
</a>
</g>
</g>
<!-- Node3 -->
<g id="Node000003" class="node">
<title>Node3</title>
<g id="a_Node000003"><a xlink:href="ui__screen__drone_8c.html#a1dc22c17796dfb3d28576143bbba316f" target="_top" xlink:title=" ">
<polygon fill="white" stroke="#666666" points="864.5,-169 772.5,-169 772.5,-150 864.5,-150 864.5,-169"/>
<text text-anchor="middle" x="818.5" y="-157" font-family="Helvetica,sans-Serif" font-size="10.00">drone_edit_row</text>
</a>
</g>
</g>
<!-- Node1&#45;&gt;Node3 -->
<g id="edge2_Node000001_Node000003" class="edge">
<title>Node1&#45;&gt;Node3</title>
<g id="a_edge2_Node000001_Node000003"><a xlink:title=" ">
<path fill="none" stroke="#63b8ff" d="M946.97,-116.99C928.5,-124.65 904.63,-134.15 883,-141.5 874.21,-144.49 864.63,-147.38 855.63,-149.95"/>
<polygon fill="#63b8ff" stroke="#63b8ff" points="948.48,-120.15 956.36,-113.06 945.78,-113.69 948.48,-120.15"/>
</a>
</g>
</g>
<!-- Node8 -->
<g id="Node000008" class="node">
<title>Node8</title>
<g id="a_Node000008"><a xlink:href="ui__screen__drone_8c.html#aa8c0173154bd23b845a220a433e6d709" target="_top" xlink:title=" ">
<polygon fill="white" stroke="#666666" points="883,-132 754,-132 754,-113 883,-113 883,-132"/>
<text text-anchor="middle" x="818.5" y="-120" font-family="Helvetica,sans-Serif" font-size="10.00">drone_row_label_value</text>
</a>
</g>
</g>
<!-- Node1&#45;&gt;Node8 -->
<g id="edge7_Node000001_Node000008" class="edge">
<title>Node1&#45;&gt;Node8</title>
<g id="a_edge7_Node000001_Node000008"><a xlink:title=" ">
<path fill="none" stroke="#63b8ff" d="M908.91,-111.82C900.36,-112.84 891.67,-113.88 883.22,-114.89"/>
<polygon fill="#63b8ff" stroke="#63b8ff" points="909.33,-115.29 918.84,-110.63 908.5,-108.34 909.33,-115.29"/>
</a>
</g>
</g>
<!-- Node12 -->
<g id="Node000012" class="node">
<title>Node12</title>
<g id="a_Node000012"><a xlink:href="ui__editors_8c.html#a532716846066c0ef4c6c497328bca058" target="_top" xlink:title=" ">
<polygon fill="white" stroke="#666666" points="882.5,-95 754.5,-95 754.5,-76 882.5,-76 882.5,-95"/>
<text text-anchor="middle" x="818.5" y="-83" font-family="Helvetica,sans-Serif" font-size="10.00">filter_load_from_target</text>
</a>
</g>
</g>
<!-- Node1&#45;&gt;Node12 -->
<g id="edge11_Node000001_Node000012" class="edge">
<title>Node1&#45;&gt;Node12</title>
<g id="a_edge11_Node000001_Node000012"><a xlink:title=" ">
<path fill="none" stroke="#63b8ff" d="M908.76,-95.6C900.08,-94.62 891.25,-93.62 882.68,-92.65"/>
<polygon fill="#63b8ff" stroke="#63b8ff" points="908.51,-99.1 918.84,-96.75 909.3,-92.14 908.51,-99.1"/>
</a>
</g>
</g>
<!-- Node17 -->
<g id="Node000017" class="node">
<title>Node17</title>
<g id="a_Node000017"><a xlink:href="ui__editors_8c.html#ac4363b3340d459ebb82772f3822085c2" target="_top" xlink:title=" ">
<polygon fill="white" stroke="#666666" points="711,-57 596,-57 596,-38 711,-38 711,-57"/>
<text text-anchor="middle" x="653.5" y="-45" font-family="Helvetica,sans-Serif" font-size="10.00">synth_ui_filter_open</text>
</a>
</g>
</g>
<!-- Node1&#45;&gt;Node17 -->
<g id="edge23_Node000001_Node000017" class="edge">
<title>Node1&#45;&gt;Node17</title>
<g id="a_edge23_Node000001_Node000017"><a xlink:title=" ">
<path fill="none" stroke="#63b8ff" d="M949.54,-89.77C930.95,-81.6 906.06,-71.81 883,-66.5 825.39,-53.24 757.73,-48.97 711.06,-47.72"/>
<polygon fill="#63b8ff" stroke="#63b8ff" points="948.35,-93.08 958.91,-93.99 951.22,-86.69 948.35,-93.08"/>
</a>
</g>
</g>
<!-- Node19 -->
<g id="Node000019" class="node">
<title>Node19</title>
<g id="a_Node000019"><a xlink:href="project__snapshot_8c.html#a48124138c7b9dc4c7e38d9b96c25b9ce" target="_top" xlink:title=" ">
<polygon fill="white" stroke="#666666" points="851,-19 786,-19 786,0 851,0 851,-19"/>
<text text-anchor="middle" x="818.5" y="-7" font-family="Helvetica,sans-Serif" font-size="10.00">ser_drone</text>
</a>
</g>
</g>
<!-- Node1&#45;&gt;Node19 -->
<g id="edge21_Node000001_Node000019" class="edge">
<title>Node1&#45;&gt;Node19</title>
<g id="a_edge21_Node000001_Node000019"><a xlink:title=" ">
<path fill="none" stroke="#63b8ff" d="M959.72,-87.34C941.17,-71.97 911.52,-48.97 883,-33.5 872.64,-27.88 860.68,-22.99 849.96,-19.12"/>
<polygon fill="#63b8ff" stroke="#63b8ff" points="957.51,-90.05 967.42,-93.81 962.01,-84.69 957.51,-90.05"/>
</a>
</g>
</g>
<!-- Node4 -->
<g id="Node000004" class="node">
<title>Node4</title>
<g id="a_Node000004"><a xlink:href="ui__screen__drone_8c.html#a5dbc7bb2e871c648cf939be1016c9c3c" target="_top" xlink:title=" ">
<polygon fill="white" stroke="#666666" points="718,-181.5 589,-181.5 589,-151.5 718,-151.5 718,-181.5"/>
<text text-anchor="start" x="597" y="-169.5" font-family="Helvetica,sans-Serif" font-size="10.00">synth_ui_drone_handle</text>
<text text-anchor="middle" x="653.5" y="-158.5" font-family="Helvetica,sans-Serif" font-size="10.00">_encoder</text>
</a>
</g>
</g>
<!-- Node3&#45;&gt;Node4 -->
<g id="edge3_Node000003_Node000004" class="edge">
<title>Node3&#45;&gt;Node4</title>
<g id="a_edge3_Node000003_Node000004"><a xlink:title=" ">
<path fill="none" stroke="#63b8ff" d="M762.06,-161.88C747.97,-162.49 732.71,-163.14 718.24,-163.76"/>
<polygon fill="#63b8ff" stroke="#63b8ff" points="762.25,-165.38 772.1,-161.45 761.95,-158.38 762.25,-165.38"/>
</a>
</g>
</g>
<!-- Node5 -->
<g id="Node000005" class="node">
<title>Node5</title>
<g id="a_Node000005"><a xlink:href="main_8c.html#a7c172ae572f9673c6c52bfaca428fc48" target="_top" xlink:title=" ">
<polygon fill="white" stroke="#666666" points="532,-176 450,-176 450,-157 532,-157 532,-176"/>
<text text-anchor="middle" x="491" y="-164" font-family="Helvetica,sans-Serif" font-size="10.00">encoder_task</text>
</a>
</g>
</g>
<!-- Node4&#45;&gt;Node5 -->
<g id="edge4_Node000004_Node000005" class="edge">
<title>Node4&#45;&gt;Node5</title>
<g id="a_edge4_Node000004_Node000005"><a xlink:title=" ">
<path fill="none" stroke="#63b8ff" d="M578.23,-166.5C562.34,-166.5 546.14,-166.5 532.13,-166.5"/>
<polygon fill="#63b8ff" stroke="#63b8ff" points="578.61,-170 588.6,-166.5 578.6,-163 578.61,-170"/>
</a>
</g>
</g>
<!-- Node6 -->
<g id="Node000006" class="node">
<title>Node6</title>
<g id="a_Node000006"><a xlink:href="main_8c.html#a3284ccb20ad2e72440652c1b1cc6d2ca" target="_top" xlink:title=" ">
<polygon fill="white" stroke="#666666" points="216.5,-172 113.5,-172 113.5,-153 216.5,-153 216.5,-172"/>
<text text-anchor="middle" x="165" y="-160" font-family="Helvetica,sans-Serif" font-size="10.00">encoder_init_task</text>
</a>
</g>
</g>
<!-- Node5&#45;&gt;Node6 -->
<g id="edge5_Node000005_Node000006" class="edge">
<title>Node5&#45;&gt;Node6</title>
<g id="a_edge5_Node000005_Node000006"><a xlink:title=" ">
<path fill="none" stroke="#63b8ff" d="M439.84,-165.88C379.13,-165.13 277.5,-163.88 216.6,-163.12"/>
<polygon fill="#63b8ff" stroke="#63b8ff" points="439.9,-169.38 449.95,-166.01 439.99,-162.38 439.9,-169.38"/>
</a>
</g>
</g>
<!-- Node7 -->
<g id="Node000007" class="node">
<title>Node7</title>
<g id="a_Node000007"><a xlink:href="main_8c.html#a630544a7f0a2cc40d8a7fefab7e2fe70" target="_top" xlink:title=" ">
<polygon fill="white" stroke="#666666" points="65,-132 0,-132 0,-113 65,-113 65,-132"/>
<text text-anchor="middle" x="32.5" y="-120" font-family="Helvetica,sans-Serif" font-size="10.00">app_main</text>
</a>
</g>
</g>
<!-- Node6&#45;&gt;Node7 -->
<g id="edge6_Node000006_Node000007" class="edge">
<title>Node6&#45;&gt;Node7</title>
<g id="a_edge6_Node000006_Node000007"><a xlink:title=" ">
<path fill="none" stroke="#63b8ff" d="M123.17,-149.98C104.21,-144.17 82.05,-137.38 64.5,-132"/>
<polygon fill="#63b8ff" stroke="#63b8ff" points="122.16,-153.33 132.74,-152.92 124.21,-146.64 122.16,-153.33"/>
</a>
</g>
</g>
<!-- Node9 -->
<g id="Node000009" class="node">
<title>Node9</title>
<g id="a_Node000009"><a xlink:href="ui__screen__drone_8c.html#a007f552b476e93fe0054f8e4e19ef8e9" target="_top" xlink:title=" ">
<polygon fill="white" stroke="#666666" points="704.5,-133 602.5,-133 602.5,-114 704.5,-114 704.5,-133"/>
<text text-anchor="middle" x="653.5" y="-121" font-family="Helvetica,sans-Serif" font-size="10.00">drone_build_view</text>
</a>
</g>
</g>
<!-- Node8&#45;&gt;Node9 -->
<g id="edge8_Node000008_Node000009" class="edge">
<title>Node8&#45;&gt;Node9</title>
<g id="a_edge8_Node000008_Node000009"><a xlink:title=" ">
<path fill="none" stroke="#63b8ff" d="M743.17,-122.96C730.13,-123.04 716.85,-123.12 704.67,-123.19"/>
<polygon fill="#63b8ff" stroke="#63b8ff" points="743.57,-126.45 753.55,-122.89 743.52,-119.45 743.57,-126.45"/>
</a>
</g>
</g>
<!-- Node10 -->
<g id="Node000010" class="node">
<title>Node10</title>
<g id="a_Node000010"><a xlink:href="ui__screen__drone_8c.html#a3c8faf275f55374832adcc76f846a561" target="_top" xlink:title=" ">
<polygon fill="white" stroke="#666666" points="553,-138 429,-138 429,-119 553,-119 553,-138"/>
<text text-anchor="middle" x="491" y="-126" font-family="Helvetica,sans-Serif" font-size="10.00">drone_view_signature</text>
</a>
</g>
</g>
<!-- Node9&#45;&gt;Node10 -->
<g id="edge9_Node000009_Node000010" class="edge">
<title>Node9&#45;&gt;Node10</title>
<g id="a_edge9_Node000009_Node000010"><a xlink:title=" ">
<path fill="none" stroke="#63b8ff" d="M592.12,-125.38C579.38,-125.78 565.93,-126.2 553.16,-126.59"/>
<polygon fill="#63b8ff" stroke="#63b8ff" points="592.27,-128.88 602.16,-125.07 592.05,-121.88 592.27,-128.88"/>
</a>
</g>
</g>
<!-- Node11 -->
<g id="Node000011" class="node">
<title>Node11</title>
<g id="a_Node000011"><a xlink:href="ui__view__resolve_8c.html#ae37bb50bbac35e64cf03b95de716a343" target="_top" xlink:title=" ">
<polygon fill="white" stroke="#666666" points="361,-138 297,-138 297,-119 361,-119 361,-138"/>
<text text-anchor="middle" x="329" y="-126" font-family="Helvetica,sans-Serif" font-size="10.00">sig_drone</text>
</a>
</g>
</g>
<!-- Node10&#45;&gt;Node11 -->
<g id="edge10_Node000010_Node000011" class="edge">
<title>Node10&#45;&gt;Node11</title>
<g id="a_edge10_Node000010_Node000011"><a xlink:title=" ">
<path fill="none" stroke="#63b8ff" d="M418.47,-128.5C398.33,-128.5 377.46,-128.5 361.05,-128.5"/>
<polygon fill="#63b8ff" stroke="#63b8ff" points="418.6,-132 428.6,-128.5 418.6,-125 418.6,-132"/>
</a>
</g>
</g>
<!-- Node13 -->
<g id="Node000013" class="node">
<title>Node13</title>
<g id="a_Node000013"><a xlink:href="ui__editors_8c.html#a4598579664b8a5392029b9f5168b8dd5" target="_top" xlink:title=" ">
<polygon fill="white" stroke="#666666" points="553,-100.5 429,-100.5 429,-70.5 553,-70.5 553,-100.5"/>
<text text-anchor="start" x="437" y="-88.5" font-family="Helvetica,sans-Serif" font-size="10.00">synth_ui_filter_handle</text>
<text text-anchor="middle" x="491" y="-77.5" font-family="Helvetica,sans-Serif" font-size="10.00">_button</text>
</a>
</g>
</g>
<!-- Node12&#45;&gt;Node13 -->
<g id="edge12_Node000012_Node000013" class="edge">
<title>Node12&#45;&gt;Node13</title>
<g id="a_edge12_Node000012_Node000013"><a xlink:title=" ">
<path fill="none" stroke="#63b8ff" d="M744.22,-85.5C686.59,-85.5 607.25,-85.5 553.04,-85.5"/>
<polygon fill="#63b8ff" stroke="#63b8ff" points="744.35,-89 754.35,-85.5 744.35,-82 744.35,-89"/>
</a>
</g>
</g>
<!-- Node12&#45;&gt;Node17 -->
<g id="edge18_Node000012_Node000017" class="edge">
<title>Node12&#45;&gt;Node17</title>
<g id="a_edge18_Node000012_Node000017"><a xlink:title=" ">
<path fill="none" stroke="#63b8ff" d="M766.47,-73.6C743.56,-68.26 716.9,-62.05 695.34,-57.02"/>
<polygon fill="#63b8ff" stroke="#63b8ff" points="765.83,-77.05 776.37,-75.91 767.42,-70.23 765.83,-77.05"/>
</a>
</g>
</g>
<!-- Node14 -->
<g id="Node000014" class="node">
<title>Node14</title>
<g id="a_Node000014"><a xlink:href="main_8c.html#a853991e008217fad3ba1257cf6c2ffd6" target="_top" xlink:title=" ">
<polygon fill="white" stroke="#666666" points="393,-95 265,-95 265,-76 393,-76 393,-95"/>
<text text-anchor="middle" x="329" y="-83" font-family="Helvetica,sans-Serif" font-size="10.00">dispatch_button_event</text>
</a>
</g>
</g>
<!-- Node13&#45;&gt;Node14 -->
<g id="edge13_Node000013_Node000014" class="edge">
<title>Node13&#45;&gt;Node14</title>
<g id="a_edge13_Node000013_Node000014"><a xlink:title=" ">
<path fill="none" stroke="#63b8ff" d="M418.4,-85.5C409.96,-85.5 401.4,-85.5 393.09,-85.5"/>
<polygon fill="#63b8ff" stroke="#63b8ff" points="418.6,-89 428.6,-85.5 418.6,-82 418.6,-89"/>
</a>
</g>
</g>
<!-- Node15 -->
<g id="Node000015" class="node">
<title>Node15</title>
<g id="a_Node000015"><a xlink:href="main_8c.html#a76ad0af96f0bd05b4f5d9de46d8f0844" target="_top" xlink:title=" ">
<polygon fill="white" stroke="#666666" points="223,-132 107,-132 107,-113 223,-113 223,-132"/>
<text text-anchor="middle" x="165" y="-120" font-family="Helvetica,sans-Serif" font-size="10.00">button_handler_task</text>
</a>
</g>
</g>
<!-- Node14&#45;&gt;Node15 -->
<g id="edge14_Node000014_Node000015" class="edge">
<title>Node14&#45;&gt;Node15</title>
<g id="a_edge14_Node000014_Node000015"><a xlink:title=" ">
<path fill="none" stroke="#63b8ff" d="M276.39,-97.29C254.27,-102.34 228.77,-108.16 207.86,-112.94"/>
<polygon fill="#63b8ff" stroke="#63b8ff" points="277.31,-100.67 286.28,-95.03 275.75,-93.84 277.31,-100.67"/>
</a>
</g>
</g>
<!-- Node16 -->
<g id="Node000016" class="node">
<title>Node16</title>
<g id="a_Node000016"><a xlink:href="main_8c.html#a078307577c9af84e25489131d173b731" target="_top" xlink:title=" ">
<polygon fill="white" stroke="#666666" points="229,-95 101,-95 101,-76 229,-76 229,-95"/>
<text text-anchor="middle" x="165" y="-83" font-family="Helvetica,sans-Serif" font-size="10.00">main_button_event_cb</text>
</a>
</g>
</g>
<!-- Node14&#45;&gt;Node16 -->
<g id="edge16_Node000014_Node000016" class="edge">
<title>Node14&#45;&gt;Node16</title>
<g id="a_edge16_Node000014_Node000016"><a xlink:title=" ">
<path fill="none" stroke="#63b8ff" d="M254.63,-85.5C246.14,-85.5 237.53,-85.5 229.19,-85.5"/>
<polygon fill="#63b8ff" stroke="#63b8ff" points="254.9,-89 264.9,-85.5 254.9,-82 254.9,-89"/>
</a>
</g>
</g>
<!-- Node15&#45;&gt;Node7 -->
<g id="edge15_Node000015_Node000007" class="edge">
<title>Node15&#45;&gt;Node7</title>
<g id="a_edge15_Node000015_Node000007"><a xlink:title=" ">
<path fill="none" stroke="#63b8ff" d="M96.7,-122.5C85.72,-122.5 74.82,-122.5 65.25,-122.5"/>
<polygon fill="#63b8ff" stroke="#63b8ff" points="96.76,-126 106.76,-122.5 96.76,-119 96.76,-126"/>
</a>
</g>
</g>
<!-- Node16&#45;&gt;Node7 -->
<g id="edge17_Node000016_Node000007" class="edge">
<title>Node16&#45;&gt;Node7</title>
<g id="a_edge17_Node000016_Node000007"><a xlink:title=" ">
<path fill="none" stroke="#63b8ff" d="M120.63,-97.8C102.51,-102.93 81.85,-108.79 65.2,-113.51"/>
<polygon fill="#63b8ff" stroke="#63b8ff" points="121.73,-101.12 130.39,-95.03 119.82,-94.39 121.73,-101.12"/>
</a>
</g>
</g>
<!-- Node18 -->
<g id="Node000018" class="node">
<title>Node18</title>
<g id="a_Node000018"><a xlink:href="ui__editors_8c.html#a950a10880d1a506203286cc9dd269407" target="_top" xlink:title=" ">
<polygon fill="white" stroke="#666666" points="552,-52 430,-52 430,-33 552,-33 552,-52"/>
<text text-anchor="middle" x="491" y="-40" font-family="Helvetica,sans-Serif" font-size="10.00">synth_ui_cycle_editor</text>
</a>
</g>
</g>
<!-- Node17&#45;&gt;Node18 -->
<g id="edge19_Node000017_Node000018" class="edge">
<title>Node17&#45;&gt;Node18</title>
<g id="a_edge19_Node000017_Node000018"><a xlink:title=" ">
<path fill="none" stroke="#63b8ff" d="M585.8,-45.42C574.65,-45.07 563.13,-44.72 552.16,-44.37"/>
<polygon fill="#63b8ff" stroke="#63b8ff" points="585.81,-48.92 595.91,-45.74 586.03,-41.93 585.81,-48.92"/>
</a>
</g>
</g>
<!-- Node18&#45;&gt;Node14 -->
<g id="edge20_Node000018_Node000014" class="edge">
<title>Node18&#45;&gt;Node14</title>
<g id="a_edge20_Node000018_Node000014"><a xlink:title=" ">
<path fill="none" stroke="#63b8ff" d="M444.81,-54.65C419.65,-61.41 388.8,-69.7 365.41,-75.98"/>
<polygon fill="#63b8ff" stroke="#63b8ff" points="445.74,-58.02 454.49,-52.04 443.93,-51.26 445.74,-58.02"/>
</a>
</g>
</g>
<!-- Node20 -->
<g id="Node000020" class="node">
<title>Node20</title>
<g id="a_Node000020"><a xlink:href="project__snapshot_8c.html#a60da0804771ff732a1d5943a36b47a46" target="_top" xlink:title=" ">
<polygon fill="white" stroke="#666666" points="717.5,-19 589.5,-19 589.5,0 717.5,0 717.5,-19"/>
<text text-anchor="middle" x="653.5" y="-7" font-family="Helvetica,sans-Serif" font-size="10.00">project_snapshot_save</text>
</a>
</g>
</g>
<!-- Node19&#45;&gt;Node20 -->
<g id="edge22_Node000019_Node000020" class="edge">
<title>Node19&#45;&gt;Node20</title>
<g id="a_edge22_Node000019_Node000020"><a xlink:title=" ">
<path fill="none" stroke="#63b8ff" d="M775.21,-9.5C757.65,-9.5 736.9,-9.5 717.61,-9.5"/>
<polygon fill="#63b8ff" stroke="#63b8ff" points="775.69,-13 785.69,-9.5 775.68,-6 775.69,-13"/>
</a>
</g>
</g>
</g>
</svg>
