<?xml version="1.0" encoding="UTF-8" standalone="no"?>
<!DOCTYPE svg PUBLIC "-//W3C//DTD SVG 1.1//EN"
 "http://www.w3.org/Graphics/SVG/1.1/DTD/svg11.dtd">
<!-- Generated by graphviz version 2.43.0 (0)
 -->
<!-- Title: synth_ui_drone_std_cycle_patch Pages: 1 -->
<svg width="435pt" height="138pt"
 viewBox="0.00 0.00 435.00 138.00" xmlns="http://www.w3.org/2000/svg" xmlns:xlink="http://www.w3.org/1999/xlink">
<g id="graph0" class="graph" transform="scale(1 1) rotate(0) translate(4 134)">
<title>synth_ui_drone_std_cycle_patch</title>
<!-- Node1 -->
<g id="Node000001" class="node">
<title>Node1</title>
<g id="a_Node000001"><a xlink:title=" ">
<polygon fill="#999999" stroke="#666666" points="111,-79.5 0,-79.5 0,-49.5 111,-49.5 111,-79.5"/>
<text text-anchor="start" x="8" y="-67.5" font-family="Helvetica,sans-Serif" font-size="10.00">synth_ui_drone_std</text>
<text text-anchor="middle" x="55.5" y="-56.5" font-family="Helvetica,sans-Serif" font-size="10.00">_cycle_patch</text>
</a>
</g>
</g>
<!-- Node2 -->
<g id="Node000002" class="node">
<title>Node2</title>
<g id="a_Node000002"><a xlink:href="drone__std__core_8c.html#ad42d5c40911e9dead3dfcedbf223ef74" target="_top" xlink:title=" ">
<polygon fill="white" stroke="#666666" points="265,-130 147,-130 147,-111 265,-111 265,-130"/>
<text text-anchor="middle" x="206" y="-118" font-family="Helvetica,sans-Serif" font-size="10.00">drone_std_get_patch</text>
</a>
</g>
</g>
<!-- Node1&#45;&gt;Node2 -->
<g id="edge1_Node000001_Node000002" class="edge">
<title>Node1&#45;&gt;Node2</title>
<g id="a_edge1_Node000001_Node000002"><a xlink:title=" ">
<path fill="none" stroke="#63b8ff" d="M90.14,-79.54C107.05,-86.86 127.95,-95.56 147,-102.5 151.95,-104.3 157.18,-106.09 162.39,-107.79"/>
<polygon fill="#63b8ff" stroke="#63b8ff" points="161.71,-111.25 172.3,-110.96 163.84,-104.58 161.71,-111.25"/>
</a>
</g>
</g>
<!-- Node3 -->
<g id="Node000003" class="node">
<title>Node3</title>
<g id="a_Node000003"><a xlink:href="drone__std__core_8c.html#a27ae993db2cd6fae25cb92b5ee087bb0" target="_top" xlink:title=" ">
<polygon fill="white" stroke="#666666" points="264.5,-93 147.5,-93 147.5,-74 264.5,-74 264.5,-93"/>
<text text-anchor="middle" x="206" y="-81" font-family="Helvetica,sans-Serif" font-size="10.00">drone_std_set_patch</text>
</a>
</g>
</g>
<!-- Node1&#45;&gt;Node3 -->
<g id="edge2_Node000001_Node000003" class="edge">
<title>Node1&#45;&gt;Node3</title>
<g id="a_edge2_Node000001_Node000003"><a xlink:title=" ">
<path fill="none" stroke="#63b8ff" d="M111.37,-71.52C119.81,-72.6 128.6,-73.72 137.27,-74.83"/>
<polygon fill="#63b8ff" stroke="#63b8ff" points="137,-78.33 147.37,-76.13 137.89,-71.38 137,-78.33"/>
</a>
</g>
</g>
<!-- Node6 -->
<g id="Node000006" class="node">
<title>Node6</title>
<g id="a_Node000006"><a xlink:href="patch__cycle_8h.html#ab3a963cbfe13c38a8dcedbfe2c06fe69" target="_top" xlink:title=" ">
<polygon fill="white" stroke="#666666" points="262,-56 150,-56 150,-37 262,-37 262,-56"/>
<text text-anchor="middle" x="206" y="-44" font-family="Helvetica,sans-Serif" font-size="10.00">patch_domain_step</text>
</a>
</g>
</g>
<!-- Node1&#45;&gt;Node6 -->
<g id="edge5_Node000001_Node000006" class="edge">
<title>Node1&#45;&gt;Node6</title>
<g id="a_edge5_Node000001_Node000006"><a xlink:title=" ">
<path fill="none" stroke="#63b8ff" d="M111.37,-57.85C120.6,-56.73 130.25,-55.56 139.7,-54.41"/>
<polygon fill="#63b8ff" stroke="#63b8ff" points="140.35,-57.86 149.86,-53.18 139.51,-50.91 140.35,-57.86"/>
</a>
</g>
</g>
<!-- Node8 -->
<g id="Node000008" class="node">
<title>Node8</title>
<g id="a_Node000008"><a xlink:href="patch__names_8h.html#a069c43909623a7c11b69c73889747f9e" target="_top" xlink:title=" ">
<polygon fill="white" stroke="#666666" points="253.5,-19 158.5,-19 158.5,0 253.5,0 253.5,-19"/>
<text text-anchor="middle" x="206" y="-7" font-family="Helvetica,sans-Serif" font-size="10.00">patch_name_for</text>
</a>
</g>
</g>
<!-- Node1&#45;&gt;Node8 -->
<g id="edge7_Node000001_Node000008" class="edge">
<title>Node1&#45;&gt;Node8</title>
<g id="a_edge7_Node000001_Node000008"><a xlink:title=" ">
<path fill="none" stroke="#63b8ff" d="M91.47,-49.37C108.15,-42.37 128.47,-34.15 147,-27.5 152.15,-25.65 157.59,-23.82 163,-22.06"/>
<polygon fill="#63b8ff" stroke="#63b8ff" points="164.15,-25.37 172.62,-19 162.03,-18.69 164.15,-25.37"/>
</a>
</g>
</g>
<!-- Node4 -->
<g id="Node000004" class="node">
<title>Node4</title>
<g id="a_Node000004"><a xlink:href="drone__core_8c.html#aa1e050fac88000dc0897e0cf2d80dcdc" target="_top" xlink:title=" ">
<polygon fill="white" stroke="#666666" points="427,-130 301,-130 301,-111 427,-111 427,-130"/>
<text text-anchor="middle" x="364" y="-118" font-family="Helvetica,sans-Serif" font-size="10.00">drone_patch_excluded</text>
</a>
</g>
</g>
<!-- Node3&#45;&gt;Node4 -->
<g id="edge3_Node000003_Node000004" class="edge">
<title>Node3&#45;&gt;Node4</title>
<g id="a_edge3_Node000003_Node000004"><a xlink:title=" ">
<path fill="none" stroke="#63b8ff" d="M247.17,-93.03C267.2,-97.78 291.62,-103.57 312.87,-108.61"/>
<polygon fill="#63b8ff" stroke="#63b8ff" points="312.15,-112.04 322.69,-110.94 313.77,-105.23 312.15,-112.04"/>
</a>
</g>
</g>
<!-- Node5 -->
<g id="Node000005" class="node">
<title>Node5</title>
<g id="a_Node000005"><a xlink:href="drone__std__core_8c.html#abea26511eac00ce717086df8d7487cf0" target="_top" xlink:title=" ">
<polygon fill="white" stroke="#666666" points="425.5,-93 302.5,-93 302.5,-74 425.5,-74 425.5,-93"/>
<text text-anchor="middle" x="364" y="-81" font-family="Helvetica,sans-Serif" font-size="10.00">drone_std_mark_dirty</text>
</a>
</g>
</g>
<!-- Node3&#45;&gt;Node5 -->
<g id="edge4_Node000003_Node000005" class="edge">
<title>Node3&#45;&gt;Node5</title>
<g id="a_edge4_Node000003_Node000005"><a xlink:title=" ">
<path fill="none" stroke="#63b8ff" d="M264.65,-83.5C273.7,-83.5 283.14,-83.5 292.44,-83.5"/>
<polygon fill="#63b8ff" stroke="#63b8ff" points="292.45,-87 302.45,-83.5 292.45,-80 292.45,-87"/>
</a>
</g>
</g>
<!-- Node7 -->
<g id="Node000007" class="node">
<title>Node7</title>
<g id="a_Node000007"><a xlink:href="patch__cycle_8h.html#ae763feca884319dd4e82a3870496c315" target="_top" xlink:title=" ">
<polygon fill="white" stroke="#666666" points="425,-56 303,-56 303,-37 425,-37 425,-56"/>
<text text-anchor="middle" x="364" y="-44" font-family="Helvetica,sans-Serif" font-size="10.00">patch_domain_allows</text>
</a>
</g>
</g>
<!-- Node6&#45;&gt;Node7 -->
<g id="edge6_Node000006_Node000007" class="edge">
<title>Node6&#45;&gt;Node7</title>
<g id="a_edge6_Node000006_Node000007"><a xlink:title=" ">
<path fill="none" stroke="#63b8ff" d="M262.44,-46.5C272.29,-46.5 282.67,-46.5 292.87,-46.5"/>
<polygon fill="#63b8ff" stroke="#63b8ff" points="292.98,-50 302.98,-46.5 292.98,-43 292.98,-50"/>
</a>
</g>
</g>
</g>
</svg>
