<?xml version="1.0" encoding="UTF-8" standalone="no"?>
<!DOCTYPE svg PUBLIC "-//W3C//DTD SVG 1.1//EN"
 "http://www.w3.org/Graphics/SVG/1.1/DTD/svg11.dtd">
<!-- Generated by graphviz version 2.43.0 (0)
 -->
<!-- Title: wave_parse_header Pages: 1 -->
<svg width="341pt" height="116pt"
 viewBox="0.00 0.00 341.00 116.18" xmlns="http://www.w3.org/2000/svg" xmlns:xlink="http://www.w3.org/1999/xlink">

<svg id="main" version="1.1" xmlns="http://www.w3.org/2000/svg" xmlns:xlink="http://www.w3.org/1999/xlink" xml:space="preserve" onload="init(evt)">
<style type="text/css"><![CDATA[
.node, .edge {opacity: 0.7;}
.node.selected, .edge.selected {opacity: 1;}
.edge:hover path { stroke: red; }
.edge:hover polygon { stroke: red; fill: red; }
]]></style>
<script type="application/ecmascript" xlink:href="svg.min.js"/>
<svg id="graph" class="graph">
<g id="graph0" class="graph" transform="scale(1 1) rotate(0) translate(4 112.18)">
<title>wave_parse_header</title>
<!-- Node1 -->
<g id="Node000001" class="node">
<title>Node1</title>
<g id="a_Node000001"><a xlink:title=" ">
<polygon fill="#999999" stroke="#666666" points="114,-74 0,-74 0,-55 114,-55 114,-74"/>
<text text-anchor="middle" x="57" y="-62" font-family="Helvetica,sans-Serif" font-size="10.00">wave_parse_header</text>
</a>
</g>
</g>
<!-- Node2 -->
<g id="Node000002" class="node">
<title>Node2</title>
<g id="a_Node000002"><a xlink:href="transfer_8c.html#a4ad28e4f19ec264c8ca9d812e2f15aa3" target="_top" xlink:title=" ">
<polygon fill="white" stroke="#666666" points="333,-75 262,-75 262,-56 333,-56 333,-75"/>
<text text-anchor="middle" x="297.5" y="-63" font-family="Helvetica,sans-Serif" font-size="10.00">read_exact</text>
</a>
</g>
</g>
<!-- Node1&#45;&gt;Node2 -->
<g id="edge1_Node000001_Node000002" class="edge">
<title>Node1&#45;&gt;Node2</title>
<g id="a_edge1_Node000001_Node000002"><a xlink:title=" ">
<path fill="none" stroke="#63b8ff" d="M75.33,-74.08C93.36,-83.45 122.71,-97.09 150,-102.5 183.13,-109.07 193.2,-110.58 226,-102.5 243.34,-98.23 261.13,-88.84 274.5,-80.6"/>
<polygon fill="#63b8ff" stroke="#63b8ff" points="276.47,-83.49 283,-75.15 272.69,-77.6 276.47,-83.49"/>
</a>
</g>
</g>
<!-- Node3 -->
<g id="Node000003" class="node">
<title>Node3</title>
<g id="a_Node000003"><a xlink:href="transfer_8c.html#ae35996b813b826c8e9fac198fd0c972d" target="_top" xlink:title=" ">
<polygon fill="white" stroke="#666666" points="226,-93 150,-93 150,-74 226,-74 226,-93"/>
<text text-anchor="middle" x="188" y="-81" font-family="Helvetica,sans-Serif" font-size="10.00">read_u16_le</text>
</a>
</g>
</g>
<!-- Node1&#45;&gt;Node3 -->
<g id="edge2_Node000001_Node000003" class="edge">
<title>Node1&#45;&gt;Node3</title>
<g id="a_edge2_Node000001_Node000003"><a xlink:title=" ">
<path fill="none" stroke="#63b8ff" d="M114.21,-72.78C122.8,-74.04 131.59,-75.34 139.96,-76.57"/>
<polygon fill="#63b8ff" stroke="#63b8ff" points="139.51,-80.04 149.91,-78.04 140.53,-73.12 139.51,-80.04"/>
</a>
</g>
</g>
<!-- Node4 -->
<g id="Node000004" class="node">
<title>Node4</title>
<g id="a_Node000004"><a xlink:href="transfer_8c.html#aa818f413b30f84133e43f668a26d2458" target="_top" xlink:title=" ">
<polygon fill="white" stroke="#666666" points="226,-56 150,-56 150,-37 226,-37 226,-56"/>
<text text-anchor="middle" x="188" y="-44" font-family="Helvetica,sans-Serif" font-size="10.00">read_u32_le</text>
</a>
</g>
</g>
<!-- Node1&#45;&gt;Node4 -->
<g id="edge3_Node000001_Node000004" class="edge">
<title>Node1&#45;&gt;Node4</title>
<g id="a_edge3_Node000001_Node000004"><a xlink:title=" ">
<path fill="none" stroke="#63b8ff" d="M114.21,-56.66C122.8,-55.46 131.59,-54.23 139.96,-53.06"/>
<polygon fill="#63b8ff" stroke="#63b8ff" points="140.49,-56.52 149.91,-51.68 139.52,-49.59 140.49,-56.52"/>
</a>
</g>
</g>
<!-- Node5 -->
<g id="Node000005" class="node">
<title>Node5</title>
<g id="a_Node000005"><a xlink:href="transfer_8c.html#afe106419caa6103569a7bc21353862b5" target="_top" xlink:title=" ">
<polygon fill="white" stroke="#666666" points="222.5,-19 153.5,-19 153.5,0 222.5,0 222.5,-19"/>
<text text-anchor="middle" x="188" y="-7" font-family="Helvetica,sans-Serif" font-size="10.00">skip_bytes</text>
</a>
</g>
</g>
<!-- Node1&#45;&gt;Node5 -->
<g id="edge4_Node000001_Node000005" class="edge">
<title>Node1&#45;&gt;Node5</title>
<g id="a_edge4_Node000001_Node000005"><a xlink:title=" ">
<path fill="none" stroke="#63b8ff" d="M80.47,-54.92C101.06,-46.14 131.77,-33.05 154.94,-23.17"/>
<polygon fill="#63b8ff" stroke="#63b8ff" points="156.53,-26.3 164.35,-19.16 153.78,-19.86 156.53,-26.3"/>
</a>
</g>
</g>
<!-- Node5&#45;&gt;Node2 -->
<g id="edge5_Node000005_Node000002" class="edge">
<title>Node5&#45;&gt;Node2</title>
<g id="a_edge5_Node000005_Node000002"><a xlink:title=" ">
<path fill="none" stroke="#63b8ff" d="M207.84,-19.13C213.67,-22.12 220.1,-25.44 226,-28.5 240.31,-35.93 256.23,-44.27 269.3,-51.16"/>
<polygon fill="#63b8ff" stroke="#63b8ff" points="267.79,-54.31 278.26,-55.87 271.05,-48.12 267.79,-54.31"/>
</a>
</g>
</g>
</g>
</svg>
</svg>

<style type='text/css'>
<![CDATA[
[data-mouse-over-selected='false'] { opacity: 0.7; }
[data-mouse-over-selected='true']  { opacity: 1.0; }
]]>
</style>
<script type="application/ecmascript"><![CDATA[
document.addEventListener('DOMContentLoaded', (event) => {
  highlightEdges();
  highlightAdjacentNodes();
});
]]></script>
</svg>
