<?xml version="1.0" encoding="UTF-8" standalone="no"?>
<!DOCTYPE svg PUBLIC "-//W3C//DTD SVG 1.1//EN"
 "http://www.w3.org/Graphics/SVG/1.1/DTD/svg11.dtd">
<!-- Generated by graphviz version 2.43.0 (0)
 -->
<!-- Title: filter_hz_to_norm Pages: 1 -->
<!--zoomable 192 -->

<svg id="main" version="1.1" xmlns="http://www.w3.org/2000/svg" xmlns:xlink="http://www.w3.org/1999/xlink" xml:space="preserve" onload="init(evt)">
<style type="text/css"><![CDATA[
.node, .edge {opacity: 0.7;}
.node.selected, .edge.selected {opacity: 1;}
.edge:hover path { stroke: red; }
.edge:hover polygon { stroke: red; fill: red; }
]]></style>

<defs>
  <circle id="rim" cx="0" cy="0" r="7"/>
  <circle id="rim2" cx="0" cy="0" r="3.5"/>
  <g id="zoomPlus">
    <use xlink:href="#rim" fill="#404040"><set attributeName="fill" to="#808080" begin="zoomplus.mouseover" end="zoomplus.mouseout"/></use>
    <path d="M-4,0h8M0,-4v8" fill="none" stroke="white" stroke-width="1.5" pointer-events="none"/>
  </g>
  <g id="zoomMin">
    <use xlink:href="#rim" fill="#404040"><set attributeName="fill" to="#808080" begin="zoomminus.mouseover" end="zoomminus.mouseout"/></use>
    <path d="M-4,0h8" fill="none" stroke="white" stroke-width="1.5" pointer-events="none"/>
  </g>
  <g id="arrowUp" transform="translate(30 24)">
    <use xlink:href="#rim"/>
    <path pointer-events="none" fill="none" stroke="white" stroke-width="1.5" d="M0,-3.0v7 M-2.5,-0.5L0,-3.0L2.5,-0.5"/>
  </g>
  <g id="arrowRight" transform="rotate(90) translate(36 -43)">
    <use xlink:href="#rim"/>
    <path pointer-events="none" fill="none" stroke="white" stroke-width="1.5" d="M0,-3.0v7 M-2.5,-0.5L0,-3.0L2.5,-0.5"/>
  </g>
  <g id="arrowDown" transform="rotate(180) translate(-30 -48)">
    <use xlink:href="#rim"/>
    <path pointer-events="none" fill="none" stroke="white" stroke-width="1.5" d="M0,-3.0v7 M-2.5,-0.5L0,-3.0L2.5,-0.5"/>
  </g>
  <g id="arrowLeft" transform="rotate(270) translate(-36 17)">
    <use xlink:href="#rim"/>
    <path pointer-events="none" fill="none" stroke="white" stroke-width="1.5" d="M0,-3.0v7 M-2.5,-0.5L0,-3.0L2.5,-0.5"/>
  </g>
  <g id="resetDef">
    <use xlink:href="#rim2" fill="#404040"><set attributeName="fill" to="#808080" begin="reset.mouseover" end="reset.mouseout"/></use>
  </g>
</defs>
<script type="application/ecmascript">
var viewWidth = 1198;
var viewHeight = 192;
var sectionId = 'dynsection-18';
</script>
<script type="application/ecmascript" xlink:href="svg.min.js"/>
<svg id="graph" class="graph">
<g id="viewport">
<title>filter_hz_to_norm</title>
<!-- Node1 -->
<g id="Node000001" class="node">
<title>Node1</title>
<g id="a_Node000001"><a xlink:title=" ">
<polygon fill="#999999" stroke="#666666" points="1190,-130.33 1089,-130.33 1089,-111.33 1190,-111.33 1190,-130.33"/>
<text text-anchor="middle" x="1139.5" y="-118.33" font-family="Helvetica,sans-Serif" font-size="10.00">filter_hz_to_norm</text>
</a>
</g>
</g>
<!-- Node2 -->
<g id="Node000002" class="node">
<title>Node2</title>
<g id="a_Node000002"><a xlink:href="ui__editors_8c.html#a3fcd045efd45c26f0b196f6e48a95379" target="_top" xlink:title=" ">
<polygon fill="white" stroke="#666666" points="1053,-130.33 949,-130.33 949,-111.33 1053,-111.33 1053,-130.33"/>
<text text-anchor="middle" x="1001" y="-118.33" font-family="Helvetica,sans-Serif" font-size="10.00">filter_sync_fgraph</text>
</a>
</g>
</g>
<!-- Node1&#45;&gt;Node2 -->
<g id="edge1_Node000001_Node000002" class="edge">
<title>Node1&#45;&gt;Node2</title>
<g id="a_edge1_Node000001_Node000002"><a xlink:title=" ">
<path fill="none" stroke="#63b8ff" d="M1078.63,-120.83C1070.16,-120.83 1061.52,-120.83 1053.23,-120.83"/>
<polygon fill="#63b8ff" stroke="#63b8ff" points="1078.83,-124.33 1088.83,-120.83 1078.83,-117.33 1078.83,-124.33"/>
</a>
</g>
</g>
<!-- Node3 -->
<g id="Node000003" class="node">
<title>Node3</title>
<g id="a_Node000003"><a xlink:href="ui__editors_8c.html#a4598579664b8a5392029b9f5168b8dd5" target="_top" xlink:title=" ">
<polygon fill="white" stroke="#666666" points="913,-135.83 789,-135.83 789,-105.83 913,-105.83 913,-135.83"/>
<text text-anchor="start" x="797" y="-123.83" font-family="Helvetica,sans-Serif" font-size="10.00">synth_ui_filter_handle</text>
<text text-anchor="middle" x="851" y="-112.83" font-family="Helvetica,sans-Serif" font-size="10.00">_button</text>
</a>
</g>
</g>
<!-- Node2&#45;&gt;Node3 -->
<g id="edge2_Node000002_Node000003" class="edge">
<title>Node2&#45;&gt;Node3</title>
<g id="a_edge2_Node000002_Node000003"><a xlink:title=" ">
<path fill="none" stroke="#63b8ff" d="M938.56,-120.83C930.18,-120.83 921.57,-120.83 913.19,-120.83"/>
<polygon fill="#63b8ff" stroke="#63b8ff" points="938.65,-124.33 948.65,-120.83 938.65,-117.33 938.65,-124.33"/>
</a>
</g>
</g>
<!-- Node8 -->
<g id="Node000008" class="node">
<title>Node8</title>
<g id="a_Node000008"><a xlink:href="ui__editors_8c.html#a11c8b210eb9bd117fac52df937eb7838" target="_top" xlink:title=" ">
<polygon fill="white" stroke="#666666" points="913,-183.83 789,-183.83 789,-153.83 913,-153.83 913,-183.83"/>
<text text-anchor="start" x="797" y="-171.83" font-family="Helvetica,sans-Serif" font-size="10.00">synth_ui_filter_handle</text>
<text text-anchor="middle" x="851" y="-160.83" font-family="Helvetica,sans-Serif" font-size="10.00">_encoder</text>
</a>
</g>
</g>
<!-- Node2&#45;&gt;Node8 -->
<g id="edge8_Node000002_Node000008" class="edge">
<title>Node2&#45;&gt;Node8</title>
<g id="a_edge8_Node000002_Node000008"><a xlink:title=" ">
<path fill="none" stroke="#63b8ff" d="M960.8,-133.55C941.65,-139.76 918.48,-147.27 898.44,-153.77"/>
<polygon fill="#63b8ff" stroke="#63b8ff" points="961.97,-136.84 970.41,-130.43 959.81,-130.18 961.97,-136.84"/>
</a>
</g>
</g>
<!-- Node13 -->
<g id="Node000013" class="node">
<title>Node13</title>
<g id="a_Node000013"><a xlink:href="ui__editors_8c.html#ac4363b3340d459ebb82772f3822085c2" target="_top" xlink:title=" ">
<polygon fill="white" stroke="#666666" points="908.5,-87.33 793.5,-87.33 793.5,-68.33 908.5,-68.33 908.5,-87.33"/>
<text text-anchor="middle" x="851" y="-75.33" font-family="Helvetica,sans-Serif" font-size="10.00">synth_ui_filter_open</text>
</a>
</g>
</g>
<!-- Node2&#45;&gt;Node13 -->
<g id="edge15_Node000002_Node000013" class="edge">
<title>Node2&#45;&gt;Node13</title>
<g id="a_edge15_Node000002_Node000013"><a xlink:title=" ">
<path fill="none" stroke="#63b8ff" d="M957.27,-108.42C934.17,-101.71 906.1,-93.55 884.75,-87.35"/>
<polygon fill="#63b8ff" stroke="#63b8ff" points="956.57,-111.86 967.15,-111.29 958.53,-105.14 956.57,-111.86"/>
</a>
</g>
</g>
<!-- Node4 -->
<g id="Node000004" class="node">
<title>Node4</title>
<g id="a_Node000004"><a xlink:href="main_8c.html#a853991e008217fad3ba1257cf6c2ffd6" target="_top" xlink:title=" ">
<polygon fill="white" stroke="#666666" points="409.5,-82.33 281.5,-82.33 281.5,-63.33 409.5,-63.33 409.5,-82.33"/>
<text text-anchor="middle" x="345.5" y="-70.33" font-family="Helvetica,sans-Serif" font-size="10.00">dispatch_button_event</text>
</a>
</g>
</g>
<!-- Node3&#45;&gt;Node4 -->
<g id="edge3_Node000003_Node000004" class="edge">
<title>Node3&#45;&gt;Node4</title>
<g id="a_edge3_Node000003_Node000004"><a xlink:title=" ">
<path fill="none" stroke="#63b8ff" d="M778.49,-123.57C700.24,-125.33 571.36,-124.61 462,-106.83 430.43,-101.7 395.34,-90.56 372.22,-82.42"/>
<polygon fill="#63b8ff" stroke="#63b8ff" points="778.81,-127.06 788.72,-123.32 778.63,-120.06 778.81,-127.06"/>
</a>
</g>
</g>
<!-- Node5 -->
<g id="Node000005" class="node">
<title>Node5</title>
<g id="a_Node000005"><a xlink:href="main_8c.html#a76ad0af96f0bd05b4f5d9de46d8f0844" target="_top" xlink:title=" ">
<polygon fill="white" stroke="#666666" points="223,-109.33 107,-109.33 107,-90.33 223,-90.33 223,-109.33"/>
<text text-anchor="middle" x="165" y="-97.33" font-family="Helvetica,sans-Serif" font-size="10.00">button_handler_task</text>
</a>
</g>
</g>
<!-- Node4&#45;&gt;Node5 -->
<g id="edge4_Node000004_Node000005" class="edge">
<title>Node4&#45;&gt;Node5</title>
<g id="a_edge4_Node000004_Node000005"><a xlink:title=" ">
<path fill="none" stroke="#63b8ff" d="M271.6,-83.86C255.4,-86.31 238.46,-88.87 223.01,-91.21"/>
<polygon fill="#63b8ff" stroke="#63b8ff" points="272.2,-87.31 281.57,-82.35 271.16,-80.39 272.2,-87.31"/>
</a>
</g>
</g>
<!-- Node7 -->
<g id="Node000007" class="node">
<title>Node7</title>
<g id="a_Node000007"><a xlink:href="main_8c.html#a078307577c9af84e25489131d173b731" target="_top" xlink:title=" ">
<polygon fill="white" stroke="#666666" points="229,-72.33 101,-72.33 101,-53.33 229,-53.33 229,-72.33"/>
<text text-anchor="middle" x="165" y="-60.33" font-family="Helvetica,sans-Serif" font-size="10.00">main_button_event_cb</text>
</a>
</g>
</g>
<!-- Node4&#45;&gt;Node7 -->
<g id="edge6_Node000004_Node000007" class="edge">
<title>Node4&#45;&gt;Node7</title>
<g id="a_edge6_Node000004_Node000007"><a xlink:title=" ">
<path fill="none" stroke="#63b8ff" d="M271.25,-68.73C257.26,-67.94 242.73,-67.13 229.1,-66.37"/>
<polygon fill="#63b8ff" stroke="#63b8ff" points="271.14,-72.23 281.32,-69.29 271.53,-65.24 271.14,-72.23"/>
</a>
</g>
</g>
<!-- Node6 -->
<g id="Node000006" class="node">
<title>Node6</title>
<g id="a_Node000006"><a xlink:href="main_8c.html#a630544a7f0a2cc40d8a7fefab7e2fe70" target="_top" xlink:title=" ">
<polygon fill="white" stroke="#666666" points="65,-127.33 0,-127.33 0,-108.33 65,-108.33 65,-127.33"/>
<text text-anchor="middle" x="32.5" y="-115.33" font-family="Helvetica,sans-Serif" font-size="10.00">app_main</text>
</a>
</g>
</g>
<!-- Node5&#45;&gt;Node6 -->
<g id="edge5_Node000005_Node000006" class="edge">
<title>Node5&#45;&gt;Node6</title>
<g id="a_edge5_Node000005_Node000006"><a xlink:title=" ">
<path fill="none" stroke="#63b8ff" d="M96.7,-109.11C85.72,-110.63 74.82,-112.13 65.25,-113.45"/>
<polygon fill="#63b8ff" stroke="#63b8ff" points="97.33,-112.56 106.76,-107.73 96.38,-105.63 97.33,-112.56"/>
</a>
</g>
</g>
<!-- Node7&#45;&gt;Node6 -->
<g id="edge7_Node000007_Node000006" class="edge">
<title>Node7&#45;&gt;Node6</title>
<g id="a_edge7_Node000007_Node000006"><a xlink:title=" ">
<path fill="none" stroke="#63b8ff" d="M118.17,-75.49C112.33,-77.44 106.48,-79.57 101,-81.83 82.71,-89.38 62.84,-100.34 49.43,-108.18"/>
<polygon fill="#63b8ff" stroke="#63b8ff" points="119.46,-78.75 127.92,-72.38 117.33,-72.09 119.46,-78.75"/>
</a>
</g>
</g>
<!-- Node9 -->
<g id="Node000009" class="node">
<title>Node9</title>
<g id="a_Node000009"><a xlink:href="main_8c.html#a48a6f3ccf6ee603fccdef5ef419d94cb" target="_top" xlink:title=" ">
<polygon fill="white" stroke="#666666" points="593.5,-178.33 463.5,-178.33 463.5,-159.33 593.5,-159.33 593.5,-178.33"/>
<text text-anchor="middle" x="528.5" y="-166.33" font-family="Helvetica,sans-Serif" font-size="10.00">encoder_process_steps</text>
</a>
</g>
</g>
<!-- Node8&#45;&gt;Node9 -->
<g id="edge9_Node000008_Node000009" class="edge">
<title>Node8&#45;&gt;Node9</title>
<g id="a_edge9_Node000008_Node000009"><a xlink:title=" ">
<path fill="none" stroke="#63b8ff" d="M778.87,-168.83C723.44,-168.83 647.16,-168.83 593.61,-168.83"/>
<polygon fill="#63b8ff" stroke="#63b8ff" points="778.96,-172.33 788.96,-168.83 778.96,-165.33 778.96,-172.33"/>
</a>
</g>
</g>
<!-- Node10 -->
<g id="Node000010" class="node">
<title>Node10</title>
<g id="a_Node000010"><a xlink:href="main_8c.html#a7c172ae572f9673c6c52bfaca428fc48" target="_top" xlink:title=" ">
<polygon fill="white" stroke="#666666" points="386.5,-146.33 304.5,-146.33 304.5,-127.33 386.5,-127.33 386.5,-146.33"/>
<text text-anchor="middle" x="345.5" y="-134.33" font-family="Helvetica,sans-Serif" font-size="10.00">encoder_task</text>
</a>
</g>
</g>
<!-- Node9&#45;&gt;Node10 -->
<g id="edge10_Node000009_Node000010" class="edge">
<title>Node9&#45;&gt;Node10</title>
<g id="a_edge10_Node000009_Node000010"><a xlink:title=" ">
<path fill="none" stroke="#63b8ff" d="M463.66,-157.54C438,-153.01 409.22,-147.92 386.6,-143.92"/>
<polygon fill="#63b8ff" stroke="#63b8ff" points="463.23,-161.02 473.68,-159.32 464.45,-154.13 463.23,-161.02"/>
</a>
</g>
</g>
<!-- Node12 -->
<g id="Node000012" class="node">
<title>Node12</title>
<g id="a_Node000012"><a xlink:href="main_8c.html#a8b590a53735b197cc55892cb28706169" target="_top" xlink:title=" ">
<polygon fill="white" stroke="#666666" points="426,-183.33 265,-183.33 265,-164.33 426,-164.33 426,-183.33"/>
<text text-anchor="middle" x="345.5" y="-171.33" font-family="Helvetica,sans-Serif" font-size="10.00">harness_inject_encoder_hook</text>
</a>
</g>
</g>
<!-- Node9&#45;&gt;Node12 -->
<g id="edge13_Node000009_Node000012" class="edge">
<title>Node9&#45;&gt;Node12</title>
<g id="a_edge13_Node000009_Node000012"><a xlink:title=" ">
<path fill="none" stroke="#63b8ff" d="M453.37,-170.88C444.35,-171.13 435.12,-171.38 426.03,-171.63"/>
<polygon fill="#63b8ff" stroke="#63b8ff" points="453.53,-174.38 463.43,-170.6 453.34,-167.38 453.53,-174.38"/>
</a>
</g>
</g>
<!-- Node11 -->
<g id="Node000011" class="node">
<title>Node11</title>
<g id="a_Node000011"><a xlink:href="main_8c.html#a3284ccb20ad2e72440652c1b1cc6d2ca" target="_top" xlink:title=" ">
<polygon fill="white" stroke="#666666" points="216.5,-146.33 113.5,-146.33 113.5,-127.33 216.5,-127.33 216.5,-146.33"/>
<text text-anchor="middle" x="165" y="-134.33" font-family="Helvetica,sans-Serif" font-size="10.00">encoder_init_task</text>
</a>
</g>
</g>
<!-- Node10&#45;&gt;Node11 -->
<g id="edge11_Node000010_Node000011" class="edge">
<title>Node10&#45;&gt;Node11</title>
<g id="a_edge11_Node000010_Node000011"><a xlink:title=" ">
<path fill="none" stroke="#63b8ff" d="M294.38,-136.83C270.15,-136.83 241.12,-136.83 216.8,-136.83"/>
<polygon fill="#63b8ff" stroke="#63b8ff" points="294.44,-140.33 304.44,-136.83 294.44,-133.33 294.44,-140.33"/>
</a>
</g>
</g>
<!-- Node11&#45;&gt;Node6 -->
<g id="edge12_Node000011_Node000006" class="edge">
<title>Node11&#45;&gt;Node6</title>
<g id="a_edge12_Node000011_Node000006"><a xlink:title=" ">
<path fill="none" stroke="#63b8ff" d="M103.2,-127.98C90.05,-126.06 76.65,-124.11 65.17,-122.44"/>
<polygon fill="#63b8ff" stroke="#63b8ff" points="102.77,-131.45 113.17,-129.43 103.78,-124.53 102.77,-131.45"/>
</a>
</g>
</g>
<!-- Node12&#45;&gt;Node6 -->
<g id="edge14_Node000012_Node000006" class="edge">
<title>Node12&#45;&gt;Node6</title>
<g id="a_edge14_Node000012_Node000006"><a xlink:title=" ">
<path fill="none" stroke="#63b8ff" d="M254.67,-176.48C207.95,-175.55 150.43,-170.76 101,-155.83 80.66,-149.69 59.71,-136.65 46.66,-127.57"/>
<polygon fill="#63b8ff" stroke="#63b8ff" points="254.73,-179.98 264.78,-176.63 254.83,-172.98 254.73,-179.98"/>
</a>
</g>
</g>
<!-- Node14 -->
<g id="Node000014" class="node">
<title>Node14</title>
<g id="a_Node000014"><a xlink:href="ui__editors_8c.html#ab3cf16fe3a5d1d19f0abccfeae70caad" target="_top" xlink:title=" ">
<polygon fill="white" stroke="#666666" points="753,-87.33 631,-87.33 631,-68.33 753,-68.33 753,-87.33"/>
<text text-anchor="middle" x="692" y="-75.33" font-family="Helvetica,sans-Serif" font-size="10.00">editor_reseed_around</text>
</a>
</g>
</g>
<!-- Node13&#45;&gt;Node14 -->
<g id="edge16_Node000013_Node000014" class="edge">
<title>Node13&#45;&gt;Node14</title>
<g id="a_edge16_Node000013_Node000014"><a xlink:title=" ">
<path fill="none" stroke="#63b8ff" d="M783.05,-77.83C773.08,-77.83 762.86,-77.83 753.04,-77.83"/>
<polygon fill="#63b8ff" stroke="#63b8ff" points="783.32,-81.33 793.32,-77.83 783.32,-74.33 783.32,-81.33"/>
</a>
</g>
</g>
<!-- Node17 -->
<g id="Node000017" class="node">
<title>Node17</title>
<g id="a_Node000017"><a xlink:href="ui__editors_8c.html#a950a10880d1a506203286cc9dd269407" target="_top" xlink:title=" ">
<polygon fill="white" stroke="#666666" points="753,-23.33 631,-23.33 631,-4.33 753,-4.33 753,-23.33"/>
<text text-anchor="middle" x="692" y="-11.33" font-family="Helvetica,sans-Serif" font-size="10.00">synth_ui_cycle_editor</text>
</a>
</g>
</g>
<!-- Node13&#45;&gt;Node17 -->
<g id="edge21_Node000013_Node000017" class="edge">
<title>Node13&#45;&gt;Node17</title>
<g id="a_edge21_Node000013_Node000017"><a xlink:title=" ">
<path fill="none" stroke="#63b8ff" d="M816.84,-64.31C786.72,-52.03 743.04,-34.23 716.41,-23.37"/>
<polygon fill="#63b8ff" stroke="#63b8ff" points="815.91,-67.72 826.5,-68.25 818.56,-61.23 815.91,-67.72"/>
</a>
</g>
</g>
<!-- Node15 -->
<g id="Node000015" class="node">
<title>Node15</title>
<g id="a_Node000015"><a xlink:href="ui__editors_8c.html#a843197431e0116f08f8fa947bd381dd3" target="_top" xlink:title=" ">
<polygon fill="white" stroke="#666666" points="595,-97.83 462,-97.83 462,-67.83 595,-67.83 595,-97.83"/>
<text text-anchor="start" x="470" y="-85.83" font-family="Helvetica,sans-Serif" font-size="10.00">synth_ui_editor_release</text>
<text text-anchor="middle" x="528.5" y="-74.83" font-family="Helvetica,sans-Serif" font-size="10.00">_to_patch</text>
</a>
</g>
</g>
<!-- Node14&#45;&gt;Node15 -->
<g id="edge17_Node000014_Node000015" class="edge">
<title>Node14&#45;&gt;Node15</title>
<g id="a_edge17_Node000014_Node000015"><a xlink:title=" ">
<path fill="none" stroke="#63b8ff" d="M620.62,-80.01C612.15,-80.27 603.51,-80.54 595.11,-80.8"/>
<polygon fill="#63b8ff" stroke="#63b8ff" points="620.98,-83.5 630.86,-79.69 620.76,-76.5 620.98,-83.5"/>
</a>
</g>
</g>
<!-- Node16 -->
<g id="Node000016" class="node">
<title>Node16</title>
<g id="a_Node000016"><a xlink:href="ui__editors_8c.html#a873442c9e59781d1e95af4bd9ee2b6d2" target="_top" xlink:title=" ">
<polygon fill="white" stroke="#666666" points="592.5,-49.83 464.5,-49.83 464.5,-19.83 592.5,-19.83 592.5,-49.83"/>
<text text-anchor="start" x="472.5" y="-37.83" font-family="Helvetica,sans-Serif" font-size="10.00">synth_ui_toggle_editor</text>
<text text-anchor="middle" x="528.5" y="-26.83" font-family="Helvetica,sans-Serif" font-size="10.00">_source</text>
</a>
</g>
</g>
<!-- Node14&#45;&gt;Node16 -->
<g id="edge19_Node000014_Node000016" class="edge">
<title>Node14&#45;&gt;Node16</title>
<g id="a_edge19_Node000014_Node000016"><a xlink:title=" ">
<path fill="none" stroke="#63b8ff" d="M645.24,-65.65C626.77,-60.73 605.28,-55.01 585.86,-49.84"/>
<polygon fill="#63b8ff" stroke="#63b8ff" points="644.59,-69.1 655.16,-68.29 646.4,-62.33 644.59,-69.1"/>
</a>
</g>
</g>
<!-- Node15&#45;&gt;Node4 -->
<g id="edge18_Node000015_Node000004" class="edge">
<title>Node15&#45;&gt;Node4</title>
<g id="a_edge18_Node000015_Node000004"><a xlink:title=" ">
<path fill="none" stroke="#63b8ff" d="M451.81,-78.65C437.82,-77.88 423.34,-77.08 409.76,-76.33"/>
<polygon fill="#63b8ff" stroke="#63b8ff" points="451.72,-82.15 461.9,-79.21 452.11,-75.16 451.72,-82.15"/>
</a>
</g>
</g>
<!-- Node16&#45;&gt;Node4 -->
<g id="edge20_Node000016_Node000004" class="edge">
<title>Node16&#45;&gt;Node4</title>
<g id="a_edge20_Node000016_Node000004"><a xlink:title=" ">
<path fill="none" stroke="#63b8ff" d="M454.52,-50.15C433.37,-54.59 410.89,-59.31 391.94,-63.29"/>
<polygon fill="#63b8ff" stroke="#63b8ff" points="455.38,-53.55 464.45,-48.07 453.94,-46.7 455.38,-53.55"/>
</a>
</g>
</g>
<!-- Node17&#45;&gt;Node4 -->
<g id="edge22_Node000017_Node000004" class="edge">
<title>Node17&#45;&gt;Node4</title>
<g id="a_edge22_Node000017_Node000004"><a xlink:title=" ">
<path fill="none" stroke="#63b8ff" d="M620.57,-3.66C574.72,0.71 513.98,2.24 462,-10.83 421.39,-21.04 379.49,-48.6 359.13,-63.3"/>
<polygon fill="#63b8ff" stroke="#63b8ff" points="620.41,-7.16 630.71,-4.7 621.12,-0.2 620.41,-7.16"/>
</a>
</g>
</g>
</g>
</svg>

<g id="navigator" transform="translate(0 0)" fill="#404254">
  <rect fill="#f2f5e9" fill-opacity="0.5" stroke="#606060" stroke-width=".5" x="0" y="0" width="60" height="60"/>
  <use id="zoomplus" xlink:href="#zoomPlus" x="17" y="9" onmousedown="handleZoom(evt,'in')"/>
  <use id="zoomminus" xlink:href="#zoomMin" x="42" y="9" onmousedown="handleZoom(evt,'out')"/>
  <use id="reset" xlink:href="#resetDef" x="30" y="36" onmousedown="handleReset()"/>
   <use id="arrowup" xlink:href="#arrowUp" x="0" y="0" onmousedown="handlePan(0,-1)"/>
  <use id="arrowright" xlink:href="#arrowRight" x="0" y="0" onmousedown="handlePan(1,0)"/>
  <use id="arrowdown" xlink:href="#arrowDown" x="0" y="0" onmousedown="handlePan(0,1)"/>
  <use id="arrowleft" xlink:href="#arrowLeft" x="0" y="0" onmousedown="handlePan(-1,0)"/>
</g>
<svg viewBox="0 0 15 15" width="100%" height="30px" preserveAspectRatio="xMaxYMin meet">
 <g id="arrow_out" transform="scale(0.3 0.3)">
  <a xlink:href="ui__editors_8c_a1d53c08a99ce1b08f4e62556c58531ce_icgraph_org.svg" target="_base">
   <rect id="button" ry="5" rx="5" y="6" x="6" height="38" width="38"
        fill="#f2f5e9" fill-opacity="0.5" stroke="#606060" stroke-width="1.0"/>
   <path id="arrow"
     d="M 11.500037,31.436501 C 11.940474,20.09759 22.043105,11.32322 32.158766,21.979434 L 37.068811,17.246167 C 37.068811,17.246167 37.088388,32 37.088388,32 L 22.160133,31.978069 C 22.160133,31.978069 26.997745,27.140456 26.997745,27.140456 C 18.528582,18.264221 13.291696,25.230495 11.500037,31.436501 z"
     style="fill:#404040;"/>
  </a>
 </g>
</svg>

<style type='text/css'>
<![CDATA[
[data-mouse-over-selected='false'] { opacity: 0.7; }
[data-mouse-over-selected='true']  { opacity: 1.0; }
]]>
</style>
<script type="application/ecmascript"><![CDATA[
document.addEventListener('DOMContentLoaded', (event) => {
  highlightEdges();
  highlightAdjacentNodes();
});
]]></script>
</svg>
