<?xml version="1.0" encoding="UTF-8" standalone="no"?>
<!DOCTYPE svg PUBLIC "-//W3C//DTD SVG 1.1//EN"
 "http://www.w3.org/Graphics/SVG/1.1/DTD/svg11.dtd">
<!-- Generated by graphviz version 2.43.0 (0)
 -->
<!-- Title: fm_edit_target Pages: 1 -->
<svg width="757pt" height="193pt"
 viewBox="0.00 0.00 757.00 193.00" xmlns="http://www.w3.org/2000/svg" xmlns:xlink="http://www.w3.org/1999/xlink">
<g id="graph0" class="graph" transform="scale(1 1) rotate(0) translate(4 189)">
<title>fm_edit_target</title>
<!-- Node1 -->
<g id="Node000001" class="node">
<title>Node1</title>
<g id="a_Node000001"><a xlink:title=" ">
<polygon fill="#999999" stroke="#666666" points="89,-87 0,-87 0,-68 89,-68 89,-87"/>
<text text-anchor="middle" x="44.5" y="-75" font-family="Helvetica,sans-Serif" font-size="10.00">fm_edit_target</text>
</a>
</g>
</g>
<!-- Node2 -->
<g id="Node000002" class="node">
<title>Node2</title>
<g id="a_Node000002"><a xlink:href="fm__voice_8c.html#a8e264b6f4a515f5194147df93a8d6dc2" target="_top" xlink:title=" ">
<polygon fill="white" stroke="#666666" points="579.5,-148 484.5,-148 484.5,-129 579.5,-129 579.5,-148"/>
<text text-anchor="middle" x="532" y="-136" font-family="Helvetica,sans-Serif" font-size="10.00">fm_voice_graph</text>
</a>
</g>
</g>
<!-- Node1&#45;&gt;Node2 -->
<g id="edge1_Node000001_Node000002" class="edge">
<title>Node1&#45;&gt;Node2</title>
<g id="a_edge1_Node000001_Node000002"><a xlink:title=" ">
<path fill="none" stroke="#63b8ff" d="M81.74,-87.02C95.25,-90.35 110.76,-93.89 125,-96.5 248.41,-119.11 395.31,-130.53 474.19,-135.43"/>
<polygon fill="#63b8ff" stroke="#63b8ff" points="474.2,-138.94 484.39,-136.05 474.62,-131.95 474.2,-138.94"/>
</a>
</g>
</g>
<!-- Node6 -->
<g id="Node000006" class="node">
<title>Node6</title>
<g id="a_Node000006"><a xlink:href="fm__voice_8c.html#a4bacd82498597fad102a46875ac904a5" target="_top" xlink:title=" ">
<polygon fill="white" stroke="#666666" points="263.5,-87 129.5,-87 129.5,-68 263.5,-68 263.5,-87"/>
<text text-anchor="middle" x="196.5" y="-75" font-family="Helvetica,sans-Serif" font-size="10.00">fm_voice_set_op_target</text>
</a>
</g>
</g>
<!-- Node1&#45;&gt;Node6 -->
<g id="edge5_Node000001_Node000006" class="edge">
<title>Node1&#45;&gt;Node6</title>
<g id="a_edge5_Node000001_Node000006"><a xlink:title=" ">
<path fill="none" stroke="#63b8ff" d="M89.29,-77.5C98.69,-77.5 108.89,-77.5 119.13,-77.5"/>
<polygon fill="#63b8ff" stroke="#63b8ff" points="119.35,-81 129.35,-77.5 119.35,-74 119.35,-81"/>
</a>
</g>
</g>
<!-- Node14 -->
<g id="Node000014" class="node">
<title>Node14</title>
<g id="a_Node000014"><a xlink:href="sequencer__core_8h.html#ae672a83664ab8547343913ea83d3c997" target="_top" xlink:title=" ">
<polygon fill="white" stroke="#666666" points="268,-49.5 125,-49.5 125,-19.5 268,-19.5 268,-49.5"/>
<text text-anchor="start" x="133" y="-37.5" font-family="Helvetica,sans-Serif" font-size="10.00">sequencer_core_fm_voice</text>
<text text-anchor="middle" x="196.5" y="-26.5" font-family="Helvetica,sans-Serif" font-size="10.00">_changed</text>
</a>
</g>
</g>
<!-- Node1&#45;&gt;Node14 -->
<g id="edge16_Node000001_Node000014" class="edge">
<title>Node1&#45;&gt;Node14</title>
<g id="a_edge16_Node000001_Node000014"><a xlink:title=" ">
<path fill="none" stroke="#63b8ff" d="M78.79,-67.96C94.89,-63.34 114.74,-57.65 133.48,-52.28"/>
<polygon fill="#63b8ff" stroke="#63b8ff" points="134.5,-55.63 143.15,-49.51 132.58,-48.9 134.5,-55.63"/>
</a>
</g>
</g>
<!-- Node3 -->
<g id="Node000003" class="node">
<title>Node3</title>
<g id="a_Node000003"><a xlink:href="algorithms_8c.html#a45b08ca665820bd1d8c6e4d01bcb889b" target="_top" xlink:title=" ">
<polygon fill="white" stroke="#666666" points="743,-148 630,-148 630,-129 743,-129 743,-148"/>
<text text-anchor="middle" x="686.5" y="-136" font-family="Helvetica,sans-Serif" font-size="10.00">amy_algorithm_ops</text>
</a>
</g>
</g>
<!-- Node2&#45;&gt;Node3 -->
<g id="edge2_Node000002_Node000003" class="edge">
<title>Node2&#45;&gt;Node3</title>
<g id="a_edge2_Node000002_Node000003"><a xlink:title=" ">
<path fill="none" stroke="#63b8ff" d="M579.58,-138.5C592.22,-138.5 606.14,-138.5 619.62,-138.5"/>
<polygon fill="#63b8ff" stroke="#63b8ff" points="619.81,-142 629.81,-138.5 619.81,-135 619.81,-142"/>
</a>
</g>
</g>
<!-- Node4 -->
<g id="Node000004" class="node">
<title>Node4</title>
<g id="a_Node000004"><a xlink:href="fm__graph_8c.html#a49860e60bb141ec8a023091d8d33e6a1" target="_top" xlink:title=" ">
<polygon fill="white" stroke="#666666" points="738.5,-111 634.5,-111 634.5,-92 738.5,-92 738.5,-111"/>
<text text-anchor="middle" x="686.5" y="-99" font-family="Helvetica,sans-Serif" font-size="10.00">fm_graph_decode</text>
</a>
</g>
</g>
<!-- Node2&#45;&gt;Node4 -->
<g id="edge3_Node000002_Node000004" class="edge">
<title>Node2&#45;&gt;Node4</title>
<g id="a_edge3_Node000002_Node000004"><a xlink:title=" ">
<path fill="none" stroke="#63b8ff" d="M572.27,-128.97C591.76,-124.24 615.51,-118.48 636.21,-113.46"/>
<polygon fill="#63b8ff" stroke="#63b8ff" points="637.2,-116.82 646.1,-111.06 635.55,-110.02 637.2,-116.82"/>
</a>
</g>
</g>
<!-- Node5 -->
<g id="Node000005" class="node">
<title>Node5</title>
<g id="a_Node000005"><a xlink:href="fm__graph_8c.html#ac845f6fd93fbe3f95e36ea5dc40bb761" target="_top" xlink:title=" ">
<polygon fill="white" stroke="#666666" points="749,-185 624,-185 624,-166 749,-166 749,-185"/>
<text text-anchor="middle" x="686.5" y="-173" font-family="Helvetica,sans-Serif" font-size="10.00">fm_graph_from_forest</text>
</a>
</g>
</g>
<!-- Node2&#45;&gt;Node5 -->
<g id="edge4_Node000002_Node000005" class="edge">
<title>Node2&#45;&gt;Node5</title>
<g id="a_edge4_Node000002_Node000005"><a xlink:title=" ">
<path fill="none" stroke="#63b8ff" d="M572.27,-148.03C591.76,-152.76 615.51,-158.52 636.21,-163.54"/>
<polygon fill="#63b8ff" stroke="#63b8ff" points="635.55,-166.98 646.1,-165.94 637.2,-160.18 635.55,-166.98"/>
</a>
</g>
</g>
<!-- Node7 -->
<g id="Node000007" class="node">
<title>Node7</title>
<g id="a_Node000007"><a xlink:href="fm__graph_8c.html#a6c680c076f9afb1f5b652abbf1318202" target="_top" xlink:title=" ">
<polygon fill="white" stroke="#666666" points="425.5,-64 318.5,-64 318.5,-45 425.5,-45 425.5,-64"/>
<text text-anchor="middle" x="372" y="-52" font-family="Helvetica,sans-Serif" font-size="10.00">fm_graph_compile</text>
</a>
</g>
</g>
<!-- Node6&#45;&gt;Node7 -->
<g id="edge6_Node000006_Node000007" class="edge">
<title>Node6&#45;&gt;Node7</title>
<g id="a_edge6_Node000006_Node000007"><a xlink:title=" ">
<path fill="none" stroke="#63b8ff" d="M263.59,-68.74C278.15,-66.81 293.54,-64.77 307.98,-62.85"/>
<polygon fill="#63b8ff" stroke="#63b8ff" points="308.85,-66.27 318.3,-61.49 307.93,-59.33 308.85,-66.27"/>
</a>
</g>
</g>
<!-- Node10 -->
<g id="Node000010" class="node">
<title>Node10</title>
<g id="a_Node000010"><a xlink:href="fm__graph_8c.html#a8a845a0e5d9d1d6a4c2687310d7c66a5" target="_top" xlink:title=" ">
<polygon fill="white" stroke="#666666" points="440,-27 304,-27 304,-8 440,-8 440,-27"/>
<text text-anchor="middle" x="372" y="-15" font-family="Helvetica,sans-Serif" font-size="10.00">fm_graph_edge_allowed</text>
</a>
</g>
</g>
<!-- Node6&#45;&gt;Node10 -->
<g id="edge11_Node000006_Node000010" class="edge">
<title>Node6&#45;&gt;Node10</title>
<g id="a_edge11_Node000006_Node000010"><a xlink:title=" ">
<path fill="none" stroke="#63b8ff" d="M240.67,-67.96C249.86,-65.35 259.38,-62.2 268,-58.5 285.23,-51.1 286.82,-44.02 304,-36.5 309.39,-34.14 315.16,-31.99 320.96,-30.06"/>
<polygon fill="#63b8ff" stroke="#63b8ff" points="322.2,-33.34 330.69,-27.01 320.11,-26.66 322.2,-33.34"/>
</a>
</g>
</g>
<!-- Node12 -->
<g id="Node000012" class="node">
<title>Node12</title>
<g id="a_Node000012"><a xlink:href="fm__voice_8c.html#aa035721f30719497a3bf7a51baa55371" target="_top" xlink:title=" ">
<polygon fill="white" stroke="#666666" points="439.5,-110 304.5,-110 304.5,-91 439.5,-91 439.5,-110"/>
<text text-anchor="middle" x="372" y="-98" font-family="Helvetica,sans-Serif" font-size="10.00">fm_voice_make_custom</text>
</a>
</g>
</g>
<!-- Node6&#45;&gt;Node12 -->
<g id="edge13_Node000006_Node000012" class="edge">
<title>Node6&#45;&gt;Node12</title>
<g id="a_edge13_Node000006_Node000012"><a xlink:title=" ">
<path fill="none" stroke="#63b8ff" d="M263.59,-86.26C273.57,-87.58 283.94,-88.96 294.13,-90.31"/>
<polygon fill="#63b8ff" stroke="#63b8ff" points="293.86,-93.8 304.23,-91.65 294.78,-86.87 293.86,-93.8"/>
</a>
</g>
</g>
<!-- Node8 -->
<g id="Node000008" class="node">
<title>Node8</title>
<g id="a_Node000008"><a xlink:href="fm__graph_8c.html#a44d7d078fa6805c3ad2e10ec6f2f278d" target="_top" xlink:title=" ">
<polygon fill="white" stroke="#666666" points="551.5,-56 512.5,-56 512.5,-37 551.5,-37 551.5,-56"/>
<text text-anchor="middle" x="532" y="-44" font-family="Helvetica,sans-Serif" font-size="10.00">emit</text>
</a>
</g>
</g>
<!-- Node7&#45;&gt;Node8 -->
<g id="edge7_Node000007_Node000008" class="edge">
<title>Node7&#45;&gt;Node8</title>
<g id="a_edge7_Node000007_Node000008"><a xlink:title=" ">
<path fill="none" stroke="#63b8ff" d="M425.61,-51.84C451.11,-50.55 480.75,-49.04 502.09,-47.96"/>
<polygon fill="#63b8ff" stroke="#63b8ff" points="502.32,-51.46 512.13,-47.46 501.97,-44.47 502.32,-51.46"/>
</a>
</g>
</g>
<!-- Node8&#45;&gt;Node8 -->
<g id="edge8_Node000008_Node000008" class="edge">
<title>Node8&#45;&gt;Node8</title>
<g id="a_edge8_Node000008_Node000008"><a xlink:title=" ">
<path fill="none" stroke="#63b8ff" d="M512.26,-53.54C495.34,-62.81 501.92,-74 532,-74 555.03,-74 564.28,-67.44 559.76,-60.21"/>
<polygon fill="#63b8ff" stroke="#63b8ff" points="561.67,-57.24 551.74,-53.54 557.2,-62.63 561.67,-57.24"/>
</a>
</g>
</g>
<!-- Node9 -->
<g id="Node000009" class="node">
<title>Node9</title>
<g id="a_Node000009"><a xlink:href="fm__graph_8c.html#a0d4701f2ed0f80cec4038d6aa6bd6eee" target="_top" xlink:title=" ">
<polygon fill="white" stroke="#666666" points="725.5,-56 647.5,-56 647.5,-37 725.5,-37 725.5,-56"/>
<text text-anchor="middle" x="686.5" y="-44" font-family="Helvetica,sans-Serif" font-size="10.00">subtree_size</text>
</a>
</g>
</g>
<!-- Node8&#45;&gt;Node9 -->
<g id="edge9_Node000008_Node000009" class="edge">
<title>Node8&#45;&gt;Node9</title>
<g id="a_edge9_Node000008_Node000009"><a xlink:title=" ">
<path fill="none" stroke="#63b8ff" d="M551.7,-46.5C572.81,-46.5 607.99,-46.5 636.98,-46.5"/>
<polygon fill="#63b8ff" stroke="#63b8ff" points="637.34,-50 647.34,-46.5 637.34,-43 637.34,-50"/>
</a>
</g>
</g>
<!-- Node9&#45;&gt;Node9 -->
<g id="edge10_Node000009_Node000009" class="edge">
<title>Node9&#45;&gt;Node9</title>
<g id="a_edge10_Node000009_Node000009"><a xlink:title=" ">
<path fill="none" stroke="#63b8ff" d="M662.76,-56.08C651.22,-64.73 659.13,-74 686.5,-74 704.46,-74 714.04,-70.01 715.25,-64.82"/>
<polygon fill="#63b8ff" stroke="#63b8ff" points="718.25,-63.02 710.24,-56.08 712.17,-66.5 718.25,-63.02"/>
</a>
</g>
</g>
<!-- Node11 -->
<g id="Node000011" class="node">
<title>Node11</title>
<g id="a_Node000011"><a xlink:href="fm__graph_8c.html#a627c1df76bf6794f5079c2dcf619b260" target="_top" xlink:title=" ">
<polygon fill="white" stroke="#666666" points="576.5,-19 487.5,-19 487.5,0 576.5,0 576.5,-19"/>
<text text-anchor="middle" x="532" y="-7" font-family="Helvetica,sans-Serif" font-size="10.00">forest_reaches</text>
</a>
</g>
</g>
<!-- Node10&#45;&gt;Node11 -->
<g id="edge12_Node000010_Node000011" class="edge">
<title>Node10&#45;&gt;Node11</title>
<g id="a_edge12_Node000010_Node000011"><a xlink:title=" ">
<path fill="none" stroke="#63b8ff" d="M440.01,-14.11C452.37,-13.48 465.13,-12.84 477.04,-12.23"/>
<polygon fill="#63b8ff" stroke="#63b8ff" points="477.45,-15.72 487.26,-11.71 477.1,-8.72 477.45,-15.72"/>
</a>
</g>
</g>
<!-- Node12&#45;&gt;Node2 -->
<g id="edge15_Node000012_Node000002" class="edge">
<title>Node12&#45;&gt;Node2</title>
<g id="a_edge15_Node000012_Node000002"><a xlink:title=" ">
<path fill="none" stroke="#63b8ff" d="M412.87,-110.09C433.72,-115.1 459.43,-121.29 481.54,-126.61"/>
<polygon fill="#63b8ff" stroke="#63b8ff" points="480.88,-130.04 491.42,-128.98 482.51,-123.24 480.88,-130.04"/>
</a>
</g>
</g>
<!-- Node13 -->
<g id="Node000013" class="node">
<title>Node13</title>
<g id="a_Node000013"><a xlink:href="fm__graph_8c.html#a5468e4f532d3a9cda4bb9c742662abde" target="_top" xlink:title=" ">
<polygon fill="white" stroke="#666666" points="588,-111 476,-111 476,-92 588,-92 588,-111"/>
<text text-anchor="middle" x="532" y="-99" font-family="Helvetica,sans-Serif" font-size="10.00">fm_graph_to_forest</text>
</a>
</g>
</g>
<!-- Node12&#45;&gt;Node13 -->
<g id="edge14_Node000012_Node000013" class="edge">
<title>Node12&#45;&gt;Node13</title>
<g id="a_edge14_Node000012_Node000013"><a xlink:title=" ">
<path fill="none" stroke="#63b8ff" d="M439.55,-100.92C448.06,-100.98 456.77,-101.03 465.28,-101.08"/>
<polygon fill="#63b8ff" stroke="#63b8ff" points="465.49,-104.59 475.51,-101.15 465.53,-97.59 465.49,-104.59"/>
</a>
</g>
</g>
</g>
</svg>
