<?xml version="1.0" encoding="UTF-8" standalone="no"?>
<!DOCTYPE svg PUBLIC "-//W3C//DTD SVG 1.1//EN"
 "http://www.w3.org/Graphics/SVG/1.1/DTD/svg11.dtd">
<!-- Generated by graphviz version 2.43.0 (0)
 -->
<!-- Title: graph_auto_range_check Pages: 1 -->
<svg width="898pt" height="108pt"
 viewBox="0.00 0.00 898.00 107.50" xmlns="http://www.w3.org/2000/svg" xmlns:xlink="http://www.w3.org/1999/xlink">
<g id="graph0" class="graph" transform="scale(1 1) rotate(0) translate(4 103.5)">
<title>graph_auto_range_check</title>
<!-- Node1 -->
<g id="Node000001" class="node">
<title>Node1</title>
<g id="a_Node000001"><a xlink:title=" ">
<polygon fill="#999999" stroke="#666666" points="890,-48.5 752,-48.5 752,-29.5 890,-29.5 890,-48.5"/>
<text text-anchor="middle" x="821" y="-36.5" font-family="Helvetica,sans-Serif" font-size="10.00">graph_auto_range_check</text>
</a>
</g>
</g>
<!-- Node2 -->
<g id="Node000002" class="node">
<title>Node2</title>
<g id="a_Node000002"><a xlink:href="ui__editors_8c.html#a3c8c8c159a6ff335bec936f12a7e6eb2" target="_top" xlink:title=" ">
<polygon fill="white" stroke="#666666" points="711.5,-78 591.5,-78 591.5,-48 711.5,-48 711.5,-78"/>
<text text-anchor="start" x="599.5" y="-66" font-family="Helvetica,sans-Serif" font-size="10.00">graph_rescale_points</text>
<text text-anchor="middle" x="651.5" y="-55" font-family="Helvetica,sans-Serif" font-size="10.00">_for_type</text>
</a>
</g>
</g>
<!-- Node1&#45;&gt;Node2 -->
<g id="edge1_Node000001_Node000002" class="edge">
<title>Node1&#45;&gt;Node2</title>
<g id="a_edge1_Node000001_Node000002"><a xlink:title=" ">
<path fill="none" stroke="#63b8ff" d="M743.22,-50C732.61,-51.52 721.86,-53.06 711.64,-54.53"/>
<polygon fill="#63b8ff" stroke="#63b8ff" points="743.92,-53.44 753.32,-48.55 742.92,-46.51 743.92,-53.44"/>
</a>
</g>
</g>
<!-- Node8 -->
<g id="Node000008" class="node">
<title>Node8</title>
<g id="a_Node000008"><a xlink:href="ui__editors_8c.html#a4eb5c4ee129b3958ae8ea35e331afd79" target="_top" xlink:title=" ">
<polygon fill="white" stroke="#666666" points="716,-30 587,-30 587,0 716,0 716,-30"/>
<text text-anchor="start" x="595" y="-18" font-family="Helvetica,sans-Serif" font-size="10.00">synth_ui_graph_handle</text>
<text text-anchor="middle" x="651.5" y="-7" font-family="Helvetica,sans-Serif" font-size="10.00">_encoder</text>
</a>
</g>
</g>
<!-- Node1&#45;&gt;Node8 -->
<g id="edge8_Node000001_Node000008" class="edge">
<title>Node1&#45;&gt;Node8</title>
<g id="a_edge8_Node000001_Node000008"><a xlink:title=" ">
<path fill="none" stroke="#63b8ff" d="M743.2,-28C734.18,-26.7 725.04,-25.39 716.23,-24.13"/>
<polygon fill="#63b8ff" stroke="#63b8ff" points="742.92,-31.49 753.32,-29.45 743.92,-24.56 742.92,-31.49"/>
</a>
</g>
</g>
<!-- Node3 -->
<g id="Node000003" class="node">
<title>Node3</title>
<g id="a_Node000003"><a xlink:href="ui__editors_8c.html#a9ae1af6335a3346792b896d1a432f534" target="_top" xlink:title=" ">
<polygon fill="white" stroke="#666666" points="551,-78 429,-78 429,-48 551,-48 551,-78"/>
<text text-anchor="start" x="437" y="-66" font-family="Helvetica,sans-Serif" font-size="10.00">synth_ui_graph_cycle</text>
<text text-anchor="middle" x="490" y="-55" font-family="Helvetica,sans-Serif" font-size="10.00">_eg_type</text>
</a>
</g>
</g>
<!-- Node2&#45;&gt;Node3 -->
<g id="edge2_Node000002_Node000003" class="edge">
<title>Node2&#45;&gt;Node3</title>
<g id="a_edge2_Node000002_Node000003"><a xlink:title=" ">
<path fill="none" stroke="#63b8ff" d="M580.91,-63C571.02,-63 560.93,-63 551.24,-63"/>
<polygon fill="#63b8ff" stroke="#63b8ff" points="581.11,-66.5 591.11,-63 581.11,-59.5 581.11,-66.5"/>
</a>
</g>
</g>
<!-- Node4 -->
<g id="Node000004" class="node">
<title>Node4</title>
<g id="a_Node000004"><a xlink:href="main_8c.html#a853991e008217fad3ba1257cf6c2ffd6" target="_top" xlink:title=" ">
<polygon fill="white" stroke="#666666" points="393,-72.5 265,-72.5 265,-53.5 393,-53.5 393,-72.5"/>
<text text-anchor="middle" x="329" y="-60.5" font-family="Helvetica,sans-Serif" font-size="10.00">dispatch_button_event</text>
</a>
</g>
</g>
<!-- Node3&#45;&gt;Node4 -->
<g id="edge3_Node000003_Node000004" class="edge">
<title>Node3&#45;&gt;Node4</title>
<g id="a_edge3_Node000003_Node000004"><a xlink:title=" ">
<path fill="none" stroke="#63b8ff" d="M418.62,-63C410.13,-63 401.49,-63 393.11,-63"/>
<polygon fill="#63b8ff" stroke="#63b8ff" points="418.89,-66.5 428.89,-63 418.89,-59.5 418.89,-66.5"/>
</a>
</g>
</g>
<!-- Node5 -->
<g id="Node000005" class="node">
<title>Node5</title>
<g id="a_Node000005"><a xlink:href="main_8c.html#a76ad0af96f0bd05b4f5d9de46d8f0844" target="_top" xlink:title=" ">
<polygon fill="white" stroke="#666666" points="223,-99.5 107,-99.5 107,-80.5 223,-80.5 223,-99.5"/>
<text text-anchor="middle" x="165" y="-87.5" font-family="Helvetica,sans-Serif" font-size="10.00">button_handler_task</text>
</a>
</g>
</g>
<!-- Node4&#45;&gt;Node5 -->
<g id="edge4_Node000004_Node000005" class="edge">
<title>Node4&#45;&gt;Node5</title>
<g id="a_edge4_Node000004_Node000005"><a xlink:title=" ">
<path fill="none" stroke="#63b8ff" d="M260.94,-74.18C248.38,-76.27 235.37,-78.44 223.15,-80.48"/>
<polygon fill="#63b8ff" stroke="#63b8ff" points="261.6,-77.62 270.88,-72.52 260.45,-70.71 261.6,-77.62"/>
</a>
</g>
</g>
<!-- Node7 -->
<g id="Node000007" class="node">
<title>Node7</title>
<g id="a_Node000007"><a xlink:href="main_8c.html#a078307577c9af84e25489131d173b731" target="_top" xlink:title=" ">
<polygon fill="white" stroke="#666666" points="229,-62.5 101,-62.5 101,-43.5 229,-43.5 229,-62.5"/>
<text text-anchor="middle" x="165" y="-50.5" font-family="Helvetica,sans-Serif" font-size="10.00">main_button_event_cb</text>
</a>
</g>
</g>
<!-- Node4&#45;&gt;Node7 -->
<g id="edge6_Node000004_Node000007" class="edge">
<title>Node4&#45;&gt;Node7</title>
<g id="a_edge6_Node000004_Node000007"><a xlink:title=" ">
<path fill="none" stroke="#63b8ff" d="M254.91,-58.49C246.32,-57.96 237.62,-57.42 229.19,-56.9"/>
<polygon fill="#63b8ff" stroke="#63b8ff" points="254.71,-61.98 264.9,-59.11 255.14,-55 254.71,-61.98"/>
</a>
</g>
</g>
<!-- Node6 -->
<g id="Node000006" class="node">
<title>Node6</title>
<g id="a_Node000006"><a xlink:href="main_8c.html#a630544a7f0a2cc40d8a7fefab7e2fe70" target="_top" xlink:title=" ">
<polygon fill="white" stroke="#666666" points="65,-62.5 0,-62.5 0,-43.5 65,-43.5 65,-62.5"/>
<text text-anchor="middle" x="32.5" y="-50.5" font-family="Helvetica,sans-Serif" font-size="10.00">app_main</text>
</a>
</g>
</g>
<!-- Node5&#45;&gt;Node6 -->
<g id="edge5_Node000005_Node000006" class="edge">
<title>Node5&#45;&gt;Node6</title>
<g id="a_edge5_Node000005_Node000006"><a xlink:title=" ">
<path fill="none" stroke="#63b8ff" d="M120.63,-77.7C102.51,-72.57 81.85,-66.71 65.2,-61.99"/>
<polygon fill="#63b8ff" stroke="#63b8ff" points="119.82,-81.11 130.39,-80.47 121.73,-74.38 119.82,-81.11"/>
</a>
</g>
</g>
<!-- Node7&#45;&gt;Node6 -->
<g id="edge7_Node000007_Node000006" class="edge">
<title>Node7&#45;&gt;Node6</title>
<g id="a_edge7_Node000007_Node000006"><a xlink:title=" ">
<path fill="none" stroke="#63b8ff" d="M90.56,-53C81.65,-53 72.95,-53 65.14,-53"/>
<polygon fill="#63b8ff" stroke="#63b8ff" points="90.66,-56.5 100.66,-53 90.66,-49.5 90.66,-56.5"/>
</a>
</g>
</g>
<!-- Node9 -->
<g id="Node000009" class="node">
<title>Node9</title>
<g id="a_Node000009"><a xlink:href="main_8c.html#a7c172ae572f9673c6c52bfaca428fc48" target="_top" xlink:title=" ">
<polygon fill="white" stroke="#666666" points="531,-24.5 449,-24.5 449,-5.5 531,-5.5 531,-24.5"/>
<text text-anchor="middle" x="490" y="-12.5" font-family="Helvetica,sans-Serif" font-size="10.00">encoder_task</text>
</a>
</g>
</g>
<!-- Node8&#45;&gt;Node9 -->
<g id="edge9_Node000008_Node000009" class="edge">
<title>Node8&#45;&gt;Node9</title>
<g id="a_edge9_Node000008_Node000009"><a xlink:title=" ">
<path fill="none" stroke="#63b8ff" d="M576.36,-15C560.76,-15 544.88,-15 531.11,-15"/>
<polygon fill="#63b8ff" stroke="#63b8ff" points="576.54,-18.5 586.54,-15 576.54,-11.5 576.54,-18.5"/>
</a>
</g>
</g>
<!-- Node10 -->
<g id="Node000010" class="node">
<title>Node10</title>
<g id="a_Node000010"><a xlink:href="main_8c.html#a3284ccb20ad2e72440652c1b1cc6d2ca" target="_top" xlink:title=" ">
<polygon fill="white" stroke="#666666" points="380.5,-24.5 277.5,-24.5 277.5,-5.5 380.5,-5.5 380.5,-24.5"/>
<text text-anchor="middle" x="329" y="-12.5" font-family="Helvetica,sans-Serif" font-size="10.00">encoder_init_task</text>
</a>
</g>
</g>
<!-- Node9&#45;&gt;Node10 -->
<g id="edge10_Node000009_Node000010" class="edge">
<title>Node9&#45;&gt;Node10</title>
<g id="a_edge10_Node000009_Node000010"><a xlink:title=" ">
<path fill="none" stroke="#63b8ff" d="M438.86,-15C420.3,-15 399.27,-15 380.67,-15"/>
<polygon fill="#63b8ff" stroke="#63b8ff" points="438.88,-18.5 448.88,-15 438.88,-11.5 438.88,-18.5"/>
</a>
</g>
</g>
<!-- Node10&#45;&gt;Node6 -->
<g id="edge11_Node000010_Node000006" class="edge">
<title>Node10&#45;&gt;Node6</title>
<g id="a_edge11_Node000010_Node000006"><a xlink:title=" ">
<path fill="none" stroke="#63b8ff" d="M267.05,-16.95C221.11,-19.17 156.72,-23.92 101,-34 88.3,-36.3 74.55,-39.95 62.79,-43.44"/>
<polygon fill="#63b8ff" stroke="#63b8ff" points="267.32,-20.44 277.15,-16.48 267,-13.44 267.32,-20.44"/>
</a>
</g>
</g>
</g>
</svg>
